<?xml version="1.0" standalone="no"?>
<!DOCTYPE svg PUBLIC "-//W3C//DTD SVG 20010904//EN"
 "http://www.w3.org/TR/2001/REC-SVG-20010904/DTD/svg10.dtd">
<svg version="1.0" xmlns="http://www.w3.org/2000/svg"
 width="1024.000000pt" height="1024.000000pt" viewBox="0 0 1024.000000 1024.000000"
 preserveAspectRatio="xMidYMid meet">
<metadata>
Created by potrace 1.16, written by Peter Selinger 2001-2019
</metadata>
<g transform="translate(0.000000,1024.000000) scale(0.100000,-0.100000)"
fill="#000000" stroke="none">
<path d="M863 10230 l-72 -5 32 -80 c117 -289 256 -436 466 -492 66 -18 244
-43 303 -43 19 0 39 -71 77 -260 45 -233 107 -602 117 -703 l7 -67 -40 14
c-57 20 -103 45 -137 73 -17 14 -35 22 -45 18 -8 -3 -12 -3 -9 1 4 4 2 16 -4
27 -6 11 -12 54 -15 96 -8 142 -79 292 -204 425 -73 79 -160 147 -236 185 -60
30 -137 49 -301 72 -79 11 -167 29 -195 40 -48 19 -127 22 -143 6 -3 -3 22
-55 56 -116 42 -75 76 -154 105 -243 47 -149 75 -209 148 -318 107 -160 172
-228 260 -270 103 -50 236 -49 423 3 l90 25 51 -25 c61 -30 140 -89 164 -123
19 -25 23 -52 34 -230 8 -124 42 -361 61 -430 17 -61 63 -253 96 -400 11 -52
22 -103 25 -112 2 -10 0 -18 -6 -18 -15 0 -38 27 -132 152 -85 113 -109 166
-109 237 0 46 -54 220 -87 280 -126 228 -252 308 -518 331 -125 11 -193 23
-284 51 -77 23 -110 24 -118 3 -4 -10 20 -69 59 -148 36 -72 103 -206 148
-298 68 -140 92 -179 147 -238 77 -84 167 -150 243 -180 49 -20 67 -22 170
-16 63 3 142 9 175 12 56 6 64 4 93 -21 18 -15 39 -39 46 -54 8 -14 38 -52 68
-83 49 -52 68 -63 104 -59 6 0 21 -25 34 -56 51 -124 171 -382 213 -458 40
-73 86 -119 102 -103 4 4 -30 82 -75 175 -167 342 -249 575 -279 789 -11 77
-6 91 58 154 34 33 40 35 106 36 39 0 89 8 113 16 120 44 250 155 337 289 86
133 114 214 140 410 8 63 28 155 45 204 29 89 36 126 24 138 -4 3 -45 -21 -93
-53 -59 -41 -137 -80 -251 -127 l-165 -67 -91 -91 c-101 -101 -153 -188 -179
-298 -17 -74 -24 -247 -12 -291 l8 -28 34 38 c55 63 151 231 199 347 24 59 42
107 40 107 -3 0 9 21 27 46 41 60 137 159 146 151 3 -4 -1 -15 -11 -25 -17
-17 -30 -38 -103 -153 -36 -57 -53 -103 -55 -144 0 -5 -5 -19 -11 -30 -27 -50
114 97 168 176 76 111 207 267 213 251 5 -17 -43 -94 -102 -160 -28 -32 -63
-74 -76 -93 -13 -19 -67 -77 -120 -129 -73 -73 -110 -120 -155 -195 -61 -105
-130 -205 -151 -218 -7 -4 -33 -37 -59 -73 -31 -42 -51 -62 -57 -56 -26 26
-81 426 -94 679 -9 202 -5 220 67 298 69 74 108 92 218 100 175 13 362 140
518 350 137 184 156 239 178 518 9 109 25 246 35 305 24 128 24 142 5 142 -9
0 -53 -22 -98 -49 -45 -27 -111 -62 -147 -77 -161 -70 -362 -196 -436 -276
-157 -167 -276 -524 -257 -770 6 -77 6 -78 26 -61 11 10 70 86 131 168 79 105
120 170 137 215 13 36 24 67 25 70 6 30 65 127 121 200 23 30 89 102 147 160
59 57 132 141 163 185 93 131 105 147 110 141 8 -7 -60 -147 -96 -198 -16 -24
-60 -74 -97 -113 -65 -69 -177 -199 -243 -283 -36 -47 -77 -142 -61 -142 6 0
15 10 20 23 5 12 9 16 9 8 1 -15 71 54 71 70 0 5 4 9 8 9 5 0 15 11 22 25 7
14 18 25 23 25 5 0 4 -6 -2 -14 -6 -8 -11 -18 -10 -22 5 -22 -26 -67 -118
-172 -176 -203 -197 -229 -261 -316 -41 -56 -78 -94 -107 -111 -24 -15 -47
-34 -50 -44 -3 -10 -16 -28 -29 -40 l-24 -23 -6 39 c-44 285 -101 614 -117
675 -23 91 -26 146 -11 175 7 12 54 60 106 108 102 93 180 197 226 298 30 67
76 214 69 222 -5 4 -299 9 -401 6 -48 -1 -55 -9 -64 -61 -2 -8 -6 -31 -10 -50
-4 -19 -6 -41 -5 -47 1 -7 -2 -13 -8 -13 -5 0 -12 26 -16 58 -6 49 -11 92 -14
112 -2 9 -201 6 -201 -3 0 -4 28 -44 63 -90 34 -45 81 -123 105 -173 44 -94
46 -101 57 -181 3 -26 8 -63 11 -80 9 -73 -46 -12 -75 82 -11 35 -23 80 -27
101 -11 65 -62 165 -127 251 -49 65 -70 85 -97 92 -36 10 -306 11 -437 1z
m1863 -638 c-40 -112 -195 -378 -229 -391 -11 -4 -161 -134 -205 -178 -18 -18
-39 -33 -47 -33 -8 0 -15 -5 -15 -12 0 -6 -3 -8 -7 -5 -3 4 70 85 163 180 177
180 217 232 260 338 22 55 84 152 92 145 1 -2 -4 -21 -12 -44z m-2036 -173 c0
-4 13 -10 30 -14 16 -4 44 -16 62 -29 18 -12 74 -46 123 -75 50 -30 115 -73
145 -97 65 -50 473 -452 489 -482 18 -34 13 -35 -36 -6 -27 15 -136 116 -245
224 -206 207 -268 260 -383 328 -140 83 -298 210 -211 171 14 -7 26 -16 26
-20z m133 -291 c168 -169 277 -263 351 -303 36 -20 66 -34 66 -31 0 4 13 0 29
-8 16 -9 31 -12 35 -9 3 4 6 1 6 -5 0 -7 -5 -12 -11 -12 -5 0 -7 -6 -3 -12 5
-8 1 -7 -10 2 -10 8 -26 15 -36 17 -48 7 -131 48 -190 92 -137 104 -396 381
-355 381 3 0 56 -51 118 -112z m1761 -756 c-2 -42 -97 -184 -178 -268 -36 -37
-66 -72 -66 -77 0 -14 -31 -49 -75 -88 -39 -34 -39 -34 -17 -4 13 17 39 55 60
85 20 30 44 62 53 70 9 8 28 33 42 55 15 22 56 80 92 128 39 53 65 99 65 114
0 15 5 23 13 20 6 -2 11 -18 11 -35z m-1414 -215 c43 -30 209 -176 317 -280
29 -27 74 -86 100 -131 26 -45 71 -109 100 -143 29 -34 53 -65 53 -68 0 -10
-65 27 -95 55 -16 15 -79 54 -140 86 -60 32 -136 71 -167 88 -62 34 -262 206
-410 354 -43 42 -51 63 -12 33 14 -11 31 -18 37 -15 7 2 18 -9 25 -26 8 -16
20 -30 27 -30 14 0 57 -37 193 -165 92 -87 179 -153 212 -162 25 -6 104 -47
127 -65 6 -5 14 -5 17 0 9 14 -51 107 -96 148 -23 21 -83 78 -133 127 -50 48
-95 84 -99 80 -4 -4 -4 1 0 11 6 16 3 17 -17 11 -18 -5 -20 -4 -9 4 13 9 12
12 -5 25 -11 8 -23 12 -28 9 -4 -2 -6 1 -5 8 2 7 -21 25 -51 40 -69 36 -69 37
-24 37 27 1 51 -9 83 -31z"/>
<path d="M3533 10233 c-24 -2 -43 -7 -43 -10 0 -14 119 -256 156 -318 106
-175 161 -273 174 -305 19 -50 100 -213 111 -225 6 -5 13 -5 21 3 15 15 38 16
38 2 0 -5 -7 -10 -15 -10 -10 0 -15 -10 -15 -29 0 -24 3 -28 20 -24 16 4 18 8
9 19 -17 21 25 19 46 -2 35 -36 489 -243 538 -247 12 -1 37 -12 56 -24 19 -13
46 -26 60 -30 14 -3 31 -10 38 -15 7 -5 16 -7 22 -4 5 3 11 1 13 -6 2 -6 11
-13 19 -14 83 -19 115 -31 112 -41 -3 -7 1 -13 9 -13 10 0 10 -2 -2 -9 -16
-11 -33 -4 -25 10 6 8 -22 13 -70 12 -11 0 -22 3 -25 6 -3 4 -21 14 -40 23
-25 12 -38 14 -47 6 -8 -6 -16 -8 -20 -4 -3 3 0 6 8 6 10 1 8 4 -4 11 -14 8
-23 7 -40 -8 -19 -15 -20 -16 -8 -1 12 16 10 19 -10 27 -16 5 -26 5 -31 -3 -6
-8 -8 -8 -8 1 0 7 -7 10 -17 6 -10 -3 -15 -2 -10 2 7 9 -44 41 -103 65 -108
42 -304 133 -359 165 -50 30 -65 35 -72 24 -6 -10 -9 -7 -10 11 0 22 -1 23 -8
6 -5 -14 -10 -16 -15 -8 -13 22 -26 2 -26 -41 0 -45 37 -190 63 -247 8 -19 25
-62 37 -95 11 -33 28 -66 37 -72 9 -7 13 -13 9 -13 -4 0 1 -12 12 -28 11 -15
30 -61 43 -102 47 -157 111 -261 238 -383 112 -108 179 -152 278 -183 109 -34
284 -43 406 -20 112 21 248 65 265 85 6 8 12 12 12 8 0 -3 10 4 23 16 26 25
21 39 -25 63 -28 15 -165 47 -244 58 -272 37 -447 75 -609 129 -119 40 -222
91 -246 121 -25 30 -6 43 27 17 15 -11 35 -21 46 -21 10 0 58 -16 106 -36 166
-68 321 -108 552 -144 74 -11 164 -25 200 -31 95 -15 230 -49 270 -69 36 -18
96 -18 114 0 12 12 -6 47 -51 100 -28 32 -55 47 -161 88 -111 44 -147 53 -287
72 -243 32 -320 47 -461 85 -129 35 -220 68 -260 92 -12 8 -29 11 -38 7 -9 -4
-16 -1 -16 6 0 10 -3 10 -14 1 -11 -9 -16 -6 -25 19 -6 18 -15 29 -20 26 -5
-4 -15 2 -21 11 -8 13 -13 14 -16 6 -4 -10 -12 -9 -35 2 -16 9 -29 18 -29 20
0 7 86 -2 99 -9 6 -4 11 -5 11 -1 0 3 17 -3 38 -14 32 -17 149 -61 160 -61 2
0 0 5 -4 12 -4 7 -3 8 5 4 6 -4 9 -11 6 -15 -7 -12 64 -37 185 -64 134 -32
197 -42 402 -67 92 -11 178 -24 190 -29 13 -5 43 -15 68 -22 25 -7 50 -16 55
-19 6 -4 27 -10 47 -14 l37 -7 -26 41 c-15 23 -33 38 -40 36 -7 -3 -12 -2 -11
2 10 37 -59 98 -167 147 -74 34 -260 85 -321 88 -18 1 -30 5 -28 8 5 9 -106
20 -187 20 -85 -1 -179 13 -259 39 -137 45 -260 93 -260 101 0 5 16 9 35 9 19
0 35 -4 35 -8 0 -5 21 -16 48 -25 26 -9 87 -30 135 -46 79 -27 128 -34 227
-31 8 0 40 -2 70 -6 91 -10 103 -10 106 4 1 7 0 8 -3 2 -7 -14 -22 -12 -39 5
-14 13 -14 15 0 15 9 0 16 -5 16 -11 0 -8 5 -7 16 2 13 10 17 10 24 -2 9 -14
37 -21 97 -23 17 0 29 -4 27 -7 -2 -4 8 -10 24 -15 35 -10 25 -7 115 -28 43
-10 94 -24 113 -32 l34 -14 -11 27 c-15 41 -163 187 -244 242 -114 77 -192
117 -340 171 -317 116 -338 125 -539 250 -43 27 -102 70 -130 97 -28 26 -54
47 -58 46 -3 -1 -5 5 -4 15 2 9 -3 23 -11 30 -15 16 -17 32 -3 32 6 0 15 -11
21 -23 6 -13 23 -31 37 -40 15 -9 41 -28 57 -42 33 -29 193 -130 206 -130 5 0
18 -8 30 -18 11 -10 27 -16 35 -13 8 3 13 2 10 -3 -6 -10 129 -78 209 -106 28
-9 68 -25 90 -34 111 -48 185 -61 185 -33 0 19 -273 235 -391 310 -206 130
-439 287 -534 360 -98 74 -165 151 -215 243 -17 32 -34 58 -38 57 -4 -1 -26
-3 -49 -5z m1183 -2012 c50 -6 164 -11 252 -12 153 0 160 -1 155 -20 -6 -23
-12 -24 -28 -2 -13 18 -35 10 -35 -13 0 -14 -12 -19 -23 -8 -3 3 -75 7 -161 8
-85 0 -158 4 -162 8 -4 4 -14 2 -22 -5 -13 -9 -14 -9 -8 1 4 7 2 12 -4 12 -22
0 -80 32 -74 41 3 5 8 7 12 5 4 -2 48 -9 98 -15z"/>
<path d="M3673 10232 c-24 -2 -43 -8 -43 -13 0 -30 155 -206 179 -203 7 0 24
-12 54 -41 12 -11 42 -34 67 -50 25 -17 50 -37 57 -45 11 -13 12 -13 13 0 0
12 2 12 9 2 7 -11 10 -10 15 3 4 11 -2 23 -16 35 -23 19 -23 19 -3 34 15 11
21 12 23 2 1 -7 12 -19 24 -27 12 -7 56 -49 98 -91 42 -43 82 -78 90 -78 7 0
10 -3 7 -6 -6 -7 21 -28 133 -107 87 -62 153 -102 156 -97 2 3 10 -4 18 -15 9
-11 16 -17 16 -14 0 3 28 -21 61 -53 34 -32 96 -82 138 -112 42 -30 102 -84
134 -120 32 -36 65 -66 73 -66 8 0 13 -3 12 -8 -2 -4 41 -52 95 -106 77 -78
97 -94 97 -77 0 12 4 19 10 16 6 -3 11 0 11 7 1 7 3 23 4 35 1 12 -1 20 -6 18
-4 -3 -7 8 -7 25 1 43 -17 60 -37 34 -8 -10 -15 -14 -15 -7 0 6 9 18 19 25 19
13 19 15 -2 63 -59 139 -189 323 -343 486 -57 60 -104 116 -104 123 0 8 7 16
15 20 10 3 15 -1 15 -14 0 -11 37 -51 94 -101 191 -166 328 -378 412 -636 35
-109 42 -123 62 -123 12 0 22 -4 22 -10 0 -5 -6 -10 -14 -10 -20 0 -27 -38 -9
-55 8 -8 12 -21 10 -28 -4 -9 -6 -9 -6 1 -1 6 -6 12 -11 12 -6 0 -4 -16 5 -37
16 -37 42 -73 54 -73 28 0 41 244 21 385 -12 83 -53 226 -86 301 -20 45 -23
66 -20 134 2 58 0 83 -10 91 -22 18 -6 29 26 17 33 -11 58 -44 39 -50 -6 -2
-12 -15 -12 -30 -1 -14 -6 -26 -12 -25 -15 3 -6 -41 22 -108 82 -194 101 -302
105 -587 2 -113 6 -204 10 -202 9 6 18 -10 20 -39 1 -14 6 -23 10 -21 4 3 10
-7 14 -21 8 -32 32 -32 44 -1 21 56 50 300 50 425 0 149 -11 237 -44 371 -24
93 -25 113 -6 94 13 -13 58 -169 76 -263 19 -100 19 -301 0 -440 -19 -137 -20
-208 -4 -213 6 -2 9 -12 5 -21 -3 -9 -13 -14 -20 -11 -8 3 -17 -1 -20 -9 -4
-10 1 -13 21 -9 26 5 26 4 10 -15 -20 -22 -24 -38 -6 -27 7 4 8 3 4 -4 -4 -7
-4 -18 1 -24 4 -7 8 -15 8 -18 0 -3 7 -15 16 -28 15 -21 17 -21 30 -6 7 9 28
71 45 138 17 66 41 157 53 201 28 106 39 221 37 382 -1 94 2 129 10 122 6 -5
11 -22 12 -38 0 -17 5 -38 10 -48 5 -10 8 -77 6 -149 -3 -137 -23 -250 -69
-398 -14 -45 -25 -92 -24 -106 2 -44 -10 -74 -36 -97 -15 -13 -22 -23 -18 -23
4 0 1 -5 -7 -10 -13 -9 -13 -10 0 -10 49 0 133 93 193 215 61 123 87 224 93
359 6 119 6 123 -30 231 -41 127 -79 195 -171 305 -121 144 -294 283 -437 350
-68 32 -323 97 -418 107 -68 7 -74 0 -86 -87 -6 -49 -8 -51 -21 -34 -9 12 -13
40 -12 75 1 31 -1 61 -5 67 -8 13 -160 64 -193 64 -13 0 -21 4 -18 7 9 15
-135 81 -260 120 -153 47 -205 58 -205 42 0 -6 -4 -11 -10 -11 -5 0 -7 6 -4
14 6 17 -6 21 -101 37 -69 11 -230 17 -312 11z m839 -417 c61 -80 175 -209
256 -290 30 -30 39 -45 31 -51 -8 -4 -9 -3 -5 4 4 7 1 12 -7 12 -8 0 -20 7
-27 15 -7 8 -16 12 -20 10 -5 -3 -20 6 -34 20 -14 14 -24 25 -22 25 2 0 -29
32 -69 71 -40 39 -94 104 -119 145 -26 42 -51 81 -56 87 -38 45 -70 91 -70
100 0 18 78 -63 142 -148z"/>
<path d="M5940 10229 c0 -6 22 -41 48 -78 133 -182 222 -374 272 -591 48 -207
66 -340 85 -618 13 -185 13 -222 0 -280 -12 -57 -63 -218 -103 -327 -22 -60
-33 -174 -36 -380 l-3 -210 -40 -115 c-22 -63 -52 -161 -68 -217 -24 -86 -26
-105 -15 -118 18 -22 23 -13 55 85 55 170 108 317 148 410 83 191 244 447 351
556 40 41 141 157 150 173 14 24 221 221 258 246 18 12 79 47 136 78 99 54
194 121 276 197 21 19 49 45 63 58 13 12 22 22 19 22 -4 0 3 9 15 21 11 11 18
27 15 34 -3 9 0 12 9 8 15 -5 12 -15 -10 -43 -7 -8 -15 -49 -17 -90 -3 -64
-10 -88 -48 -165 -57 -115 -60 -167 -13 -268 57 -121 169 -207 269 -207 61 0
106 21 224 100 115 77 152 91 269 97 134 6 171 31 192 124 21 90 14 143 -27
219 -76 141 -179 217 -404 301 -87 32 -164 59 -171 59 -8 0 -5 7 6 20 10 11
47 26 92 36 41 9 94 26 118 39 l44 22 80 -38 c192 -90 388 -248 742 -598 215
-211 228 -223 241 -215 4 3 8 0 8 -5 0 -6 7 -11 15 -11 20 0 19 4 -9 48 -23
35 -455 470 -541 544 -146 126 -452 342 -565 398 -87 44 -225 139 -242 167
-14 24 -14 33 -3 66 22 63 29 67 121 67 58 0 87 -4 97 -14 7 -8 33 -21 57 -29
24 -8 37 -17 29 -19 -8 -3 3 -9 24 -13 46 -9 79 4 103 40 11 17 13 29 6 38 -5
6 -15 36 -23 66 -14 54 -31 73 -51 53 -8 -8 -6 -29 5 -74 9 -34 15 -63 14 -65
-1 -1 -29 9 -61 22 -45 18 -82 25 -167 28 -89 3 -113 7 -130 23 -22 19 -22 19
-10 -3 8 -15 8 -23 1 -23 -5 0 -10 4 -10 9 0 4 -12 6 -26 3 -19 -3 -25 -1 -22
10 2 8 -13 28 -32 45 -20 17 -42 43 -50 57 -7 14 -59 73 -114 131 -97 101
-103 105 -144 105 -23 0 -42 -3 -42 -7 0 -4 45 -50 99 -104 92 -90 162 -183
211 -278 10 -22 23 -41 28 -43 13 -5 54 -68 45 -68 -5 0 -28 14 -52 31 -23 18
-53 33 -66 34 -44 5 -90 17 -117 31 -38 20 -183 47 -238 45 -74 -2 -201 -21
-262 -38 -92 -26 -142 -72 -217 -200 -63 -107 -69 -114 -125 -143 -58 -29
-127 -39 -152 -22 -27 18 -38 60 -38 147 0 76 5 99 26 145 39 83 123 176 188
208 52 26 62 27 208 27 83 0 152 3 152 8 0 4 7 7 15 7 8 0 15 5 15 11 0 5 -4
8 -9 5 -5 -3 -53 1 -107 10 -192 31 -192 31 -285 -13 -139 -65 -217 -165 -260
-331 -45 -176 -6 -277 112 -288 51 -5 84 3 184 42 16 6 18 5 9 -7 -14 -18 -41
-102 -47 -151 -10 -66 56 -136 134 -145 88 -10 145 19 324 163 50 39 117 99
150 133 51 52 85 75 85 56 0 -12 -35 -75 -42 -75 -4 0 -20 -28 -35 -62 -90
-205 -143 -295 -256 -434 -63 -76 -138 -162 -168 -190 -54 -50 -210 -225 -260
-290 -44 -57 -111 -126 -116 -120 -4 3 1 25 10 48 9 23 14 44 11 47 -2 3 -7
-5 -11 -17 -4 -18 -8 -20 -19 -11 -8 6 -15 9 -15 5 -2 -10 -5 -19 -23 -81 -10
-33 -46 -112 -81 -175 -34 -63 -80 -149 -101 -190 l-38 -75 -9 70 c-17 144 12
307 96 520 43 111 67 233 47 245 -7 4 -10 13 -6 18 13 21 8 279 -8 427 -28
251 -88 511 -157 677 -63 154 -197 374 -236 389 -33 12 -53 11 -53 -2z m1540
-435 c81 -22 243 -85 262 -101 9 -8 18 -23 21 -34 5 -18 1 -20 -56 -19 -85 1
-243 -33 -232 -50 3 -4 -3 -6 -12 -4 -22 6 -83 -35 -178 -116 -111 -95 -306
-242 -342 -256 -45 -19 -82 -17 -120 6 -56 34 -67 137 -24 219 10 20 37 71 60
115 22 43 64 107 93 142 47 58 58 66 117 85 122 38 299 44 411 13z m453 -263
c53 -27 108 -58 123 -70 l27 -21 -25 0 c-26 0 -114 -24 -163 -45 -16 -6 -43
-17 -58 -24 -15 -6 -26 -15 -23 -20 3 -4 -1 -17 -9 -27 -13 -18 -14 -18 -27
-1 -13 17 -17 17 -73 -13 -71 -37 -97 -59 -88 -73 3 -6 1 -7 -6 -3 -16 10 -80
-42 -176 -141 -52 -54 -109 -101 -165 -135 -133 -80 -170 -100 -170 -91 0 11
26 49 71 104 48 58 96 144 143 254 93 219 128 270 210 312 75 38 90 41 207 42
l106 1 96 -49z m22 -326 c110 -32 188 -65 200 -85 4 -6 21 -16 39 -24 17 -7
60 -39 94 -71 49 -45 65 -68 77 -108 18 -61 19 -97 3 -97 -9 0 -9 -3 0 -12 17
-17 15 -51 -5 -93 -21 -43 -71 -60 -151 -51 -73 9 -139 -17 -255 -98 -154
-108 -185 -114 -279 -64 -108 57 -178 161 -165 243 3 16 24 73 46 125 32 73
44 116 52 185 12 106 25 129 100 168 62 33 75 32 244 -18z"/>
<path d="M6296 10218 c-12 -47 -6 -146 10 -162 20 -21 32 -20 69 2 54 34 230
163 233 173 5 14 -45 11 -83 -5 -19 -8 -35 -13 -35 -10 0 2 -15 -10 -33 -29
-18 -18 -49 -40 -68 -49 l-34 -17 -3 59 c-3 55 -5 60 -26 60 -16 0 -26 -7 -30
-22z"/>
<path d="M8360 10231 c0 -7 -4 -9 -10 -6 -5 3 -10 0 -10 -7 0 -8 10 -15 22
-15 13 -1 24 -7 26 -12 2 -5 10 -7 19 -4 10 4 14 2 10 -4 -4 -6 29 -26 76 -48
78 -35 88 -37 202 -40 98 -3 132 -8 185 -28 181 -69 399 -107 472 -82 33 11
39 10 61 -9 14 -12 44 -48 67 -81 24 -33 60 -76 81 -95 21 -20 46 -57 57 -85
71 -185 110 -276 137 -320 18 -27 43 -81 56 -120 14 -42 51 -110 93 -170 65
-95 94 -132 259 -324 l72 -84 3 43 c3 34 -2 48 -21 69 -13 14 -40 49 -59 76
-20 28 -57 72 -83 100 -63 67 -153 205 -178 274 -18 47 -22 84 -25 232 -4 205
-3 210 80 282 29 25 80 78 113 118 33 39 86 101 117 138 40 46 58 74 58 94 0
23 -3 26 -17 18 -32 -18 -67 -55 -122 -126 -30 -38 -87 -101 -127 -140 -81
-78 -80 -78 -48 45 35 132 72 187 165 251 55 37 73 59 49 59 -21 0 -75 -33
-97 -59 -24 -28 -30 -17 -11 24 6 14 17 25 24 25 7 0 15 4 18 9 3 5 -17 9 -44
9 -48 1 -51 -1 -70 -37 -32 -63 -96 -260 -116 -356 -20 -98 -26 -358 -10 -427
13 -60 -10 -46 -43 25 -94 200 -142 406 -159 677 l-7 105 -32 3 c-38 4 -38 7
-22 -121 6 -49 8 -91 6 -94 -6 -6 -88 82 -103 111 -6 11 -14 38 -18 59 -5 28
-14 40 -33 48 -42 16 -46 -2 -19 -77 14 -38 22 -72 18 -76 -4 -3 -35 29 -69
72 l-62 78 -58 4 c-32 2 -62 1 -66 -3 -12 -9 40 -60 101 -99 29 -18 59 -45 68
-61 14 -27 13 -29 -11 -35 -28 -7 -165 16 -235 39 -181 60 -333 84 -364 58 -8
-7 -17 -8 -20 -3 -3 5 -16 7 -28 5 -13 -2 -52 9 -88 26 -36 17 -73 31 -83 31
-10 0 -27 9 -39 20 -12 11 -31 20 -42 20 -12 0 -31 3 -43 6 -14 4 -23 2 -23
-5z"/>
<path d="M23 10202 c21 -23 21 -32 2 -32 -8 0 -15 -4 -15 -9 0 -5 -3 -16 -6
-24 -4 -11 6 -19 33 -27 110 -36 238 -127 288 -206 29 -46 39 -54 65 -54 24 0
30 4 30 23 0 45 -93 168 -165 217 -42 29 -230 130 -242 130 -3 0 1 -8 10 -18z"/>
<path d="M5661 10199 c-13 -5 -45 -25 -71 -44 -58 -42 -109 -65 -148 -65 -34
0 -55 -21 -50 -47 5 -22 35 -19 63 8 12 10 36 21 55 25 60 10 134 36 154 53
22 20 40 62 29 72 -4 4 -19 3 -32 -2z"/>
<path d="M0 9975 c0 -28 6 -49 15 -57 51 -42 57 -53 52 -92 -4 -25 -16 -50
-36 -70 -22 -22 -31 -42 -31 -64 0 -18 2 -32 5 -32 14 0 82 40 97 57 45 49 61
148 34 202 -20 38 -92 101 -116 101 -17 0 -20 -7 -20 -45z"/>
<path d="M10187 9795 c-66 -180 -102 -305 -117 -407 -17 -111 -9 -287 15 -348
32 -82 38 -72 32 57 -10 201 21 391 92 568 29 71 31 87 29 169 l-3 91 -48
-130z"/>
<path d="M8705 9771 c-37 -16 -38 -18 -18 -25 13 -4 26 -5 31 -2 4 2 37 -2 72
-9 242 -51 241 -50 425 -145 166 -85 264 -147 450 -286 68 -51 155 -100 155
-89 0 34 -141 174 -212 211 -17 9 -76 46 -132 83 -55 36 -123 77 -151 90 -27
13 -65 35 -83 48 -67 50 -202 104 -311 124 -129 23 -175 24 -226 0z"/>
<path d="M8912 9592 c-70 -66 -98 -287 -60 -481 6 -33 13 -49 18 -41 4 7 16 9
28 6 12 -4 26 0 37 10 15 16 15 18 1 26 -10 5 -16 22 -16 42 0 67 18 93 119
172 85 68 124 114 108 131 -21 20 -184 -90 -225 -152 -27 -41 -32 -45 -32 -24
0 49 22 154 45 222 38 109 30 139 -23 89z"/>
<path d="M3321 9542 c-87 -51 -135 -113 -155 -200 -18 -81 -11 -148 24 -213
22 -40 37 -155 20 -144 -10 6 -27 -143 -19 -156 8 -14 21 25 49 146 12 50 24
99 27 109 3 10 31 47 63 82 86 92 104 165 79 327 -6 40 -14 75 -18 79 -4 4
-35 -9 -70 -30z"/>
<path d="M9232 9490 c-18 -24 -112 -214 -112 -226 0 -8 -65 -110 -87 -137 -28
-35 -29 -47 -3 -47 33 0 106 83 150 170 43 86 100 231 100 256 0 24 -25 16
-48 -16z"/>
<path d="M33 9408 c-28 -9 -33 -16 -33 -42 l0 -31 102 0 c57 0 116 -4 131 -8
l28 -8 -21 -30 c-30 -41 -164 -109 -217 -109 -19 0 -23 -6 -23 -30 0 -28 3
-30 35 -30 107 0 305 145 305 225 0 8 -6 15 -14 15 -7 0 -60 13 -117 30 -112
32 -127 34 -176 18z"/>
<path d="M3518 9036 c-54 -14 -117 -55 -154 -100 -14 -16 -45 -71 -70 -122
-25 -54 -64 -114 -92 -145 -40 -44 -54 -70 -76 -142 -32 -103 -64 -245 -76
-337 -5 -36 -20 -128 -34 -205 -13 -77 -27 -175 -31 -217 -8 -89 -18 -96 -63
-43 -22 24 -32 48 -36 82 -11 88 -27 138 -53 165 -110 116 -241 29 -187 -124
27 -74 76 -108 158 -108 l61 0 25 -44 c13 -25 34 -49 47 -55 26 -12 28 -31 13
-131 -18 -116 -12 -373 11 -480 11 -52 22 -106 25 -120 30 -150 53 -207 98
-249 l26 -24 0 28 c0 16 -20 89 -44 164 -60 184 -80 327 -73 531 6 170 22 247
58 287 42 45 180 153 197 154 102 3 198 36 254 87 41 37 118 142 118 161 0 27
-172 34 -231 8 -56 -23 -115 -83 -144 -142 -17 -38 -49 -75 -106 -127 -100
-91 -109 -96 -109 -66 0 58 62 404 76 425 19 30 131 113 206 153 49 26 61 29
80 19 29 -16 120 -13 164 6 20 8 50 27 67 41 41 34 137 164 137 185 0 20 -39
29 -122 29 -103 0 -227 -70 -269 -152 -15 -29 -48 -57 -139 -118 l-120 -80 0
32 c0 35 39 194 65 268 42 117 114 190 189 190 54 0 135 39 183 87 44 44 139
211 126 223 -15 15 -108 18 -155 6z"/>
<path d="M220 8804 c-114 -14 -171 -28 -200 -52 -17 -14 -21 -26 -18 -64 l3
-48 43 35 c64 50 153 76 261 77 49 0 97 -5 108 -10 12 -7 35 -7 68 -1 28 6 65
7 84 4 31 -6 33 -5 22 9 -11 13 -11 16 -1 16 16 0 7 10 -12 15 -37 9 -58 18
-58 26 0 11 -180 7 -300 -7z"/>
<path d="M9540 8714 c-88 -89 -174 -156 -249 -193 -75 -39 -313 -204 -373
-259 -66 -62 -122 -142 -178 -257 -59 -119 -80 -216 -80 -363 0 -121 1 -126
40 -227 42 -107 67 -147 157 -254 52 -61 54 -66 47 -105 -10 -62 -89 -370
-120 -466 -14 -47 -41 -141 -59 -210 -45 -172 -63 -231 -70 -239 -10 -9 -110
104 -130 146 -22 46 -15 109 20 188 14 32 30 89 35 127 25 174 -50 451 -169
626 -52 78 -263 267 -343 308 -35 18 -35 18 -7 -106 14 -66 41 -138 90 -242
38 -81 69 -150 69 -152 0 -3 11 -29 24 -58 40 -88 126 -306 166 -423 21 -60
50 -139 64 -175 l26 -65 -43 45 c-23 25 -45 44 -49 43 -4 -2 -5 3 -2 10 2 7
-3 21 -12 32 -8 11 -12 14 -8 6 8 -16 10 -17 -82 31 -113 58 -161 125 -252
343 -29 70 -58 164 -71 225 -12 58 -23 113 -25 123 -3 11 0 17 7 14 7 -2 17
-26 24 -53 43 -177 100 -335 171 -472 30 -57 100 -130 157 -160 30 -17 53 -26
50 -22 -3 5 0 10 6 12 15 5 -14 109 -54 198 -16 36 -62 146 -102 245 -40 99
-94 230 -119 291 -50 120 -76 220 -76 296 0 33 -6 55 -19 70 -11 13 -29 34
-40 48 -29 37 -38 20 -55 -100 -15 -105 -21 -133 -50 -264 -46 -210 -43 -474
8 -605 35 -89 72 -147 130 -210 89 -93 181 -141 349 -180 48 -11 101 -29 117
-41 40 -28 130 -210 130 -261 0 -21 -20 -115 -44 -211 -43 -168 -72 -314 -96
-468 -22 -144 -61 -345 -70 -353 -11 -12 -53 47 -90 128 -38 83 -41 140 -11
219 31 84 43 201 31 298 -19 153 -44 222 -121 334 -77 110 -187 209 -325 290
-78 46 -141 92 -187 137 -70 69 -111 85 -124 51 -3 -9 4 -48 16 -86 24 -75 28
-119 35 -393 4 -149 9 -198 30 -285 37 -151 93 -259 176 -341 78 -77 147 -113
246 -129 108 -18 131 -28 153 -66 12 -19 21 -40 21 -46 0 -6 12 -37 26 -69 19
-41 37 -65 60 -78 30 -18 34 -25 34 -63 0 -24 -5 -62 -10 -84 -30 -132 -41
-322 -45 -804 -5 -658 -22 -823 -115 -1100 -48 -145 -160 -411 -240 -570 -152
-302 -360 -598 -644 -914 -119 -132 -466 -478 -557 -556 -35 -30 -104 -93
-153 -140 -49 -47 -100 -95 -113 -107 -12 -12 -40 -34 -60 -50 -21 -15 -44
-34 -51 -40 -21 -20 -23 -15 -7 19 79 176 206 569 250 773 14 66 28 127 31
135 2 8 28 26 57 40 74 36 170 138 215 229 35 72 37 79 37 175 -1 83 -5 110
-24 151 -33 74 -97 153 -149 186 -38 24 -56 29 -109 29 -79 0 -128 -23 -194
-91 -86 -89 -125 -214 -110 -353 11 -99 48 -175 136 -281 l67 -80 -7 -60 c-15
-134 -154 -595 -227 -753 -16 -37 -37 -85 -44 -107 -28 -78 -85 -164 -141
-214 -31 -28 -61 -51 -65 -51 -14 0 -9 53 13 136 69 265 62 598 -18 849 -116
363 -424 741 -625 768 -59 8 -48 -16 22 -49 46 -22 158 -107 174 -132 4 -8 20
-24 34 -35 58 -48 154 -175 231 -305 54 -91 118 -263 143 -386 29 -138 31
-455 5 -596 -38 -206 -70 -338 -97 -402 -28 -64 -28 -67 -9 -73 26 -9 35 -1
71 61 17 31 51 72 77 92 25 20 98 88 161 152 63 63 137 133 165 155 71 57 481
430 603 549 264 258 648 720 775 933 17 30 51 83 75 118 45 69 186 345 259
510 58 129 194 503 195 534 0 16 3 19 9 10 16 -27 50 25 150 229 110 225 222
424 298 531 23 31 127 91 160 91 15 0 15 -1 -24 -110 -22 -61 -28 -98 -32
-201 -6 -143 2 -181 50 -236 65 -74 140 -103 212 -83 46 13 115 63 115 85 0 7
7 18 15 25 8 7 15 21 15 30 0 10 6 20 13 23 9 3 12 38 12 133 -1 155 -12 186
-104 289 -57 65 -74 95 -52 95 6 0 47 -27 93 -60 46 -33 89 -60 96 -60 7 0 11
-4 7 -9 -3 -5 -1 -12 4 -15 5 -4 12 -2 16 4 4 6 11 8 16 5 5 -4 9 -2 9 2 0 5
-9 14 -20 21 -11 7 -20 17 -20 23 0 15 137 7 240 -15 69 -15 93 -16 127 -7 55
15 88 60 88 120 0 41 6 51 68 119 58 64 67 79 67 112 0 33 -6 44 -42 74 -28
24 -48 34 -60 30 -12 -3 -17 -1 -16 7 2 6 -8 13 -21 14 -21 2 -22 0 -7 -10 17
-13 23 -30 6 -20 -5 3 -10 2 -10 -4 0 -6 11 -13 25 -17 14 -4 24 -9 21 -12 -3
-3 8 -20 24 -39 17 -18 30 -39 30 -45 0 -30 -63 -114 -99 -131 -37 -18 -38
-18 -107 8 -150 58 -191 66 -329 66 -128 -1 -165 -4 -185 -16 -26 -16 -5 17
43 67 44 47 147 119 147 103 0 -3 10 1 23 9 62 39 282 61 355 34 20 -7 23 -5
20 14 -2 14 -15 25 -43 35 -118 42 -336 -12 -501 -124 -52 -36 -98 -62 -101
-60 -7 7 53 119 78 146 10 11 19 23 19 26 0 3 21 39 46 81 58 96 91 170 109
248 16 66 19 134 7 152 -24 37 -164 68 -241 54 -23 -4 -54 -18 -68 -31 -33
-31 -77 -120 -96 -192 -16 -59 -7 -80 12 -27 5 17 12 30 15 30 3 0 1 -12 -5
-26 -13 -35 -6 -41 14 -11 9 13 14 36 13 50 -2 14 0 25 3 24 3 -1 8 3 10 8 3
6 9 15 14 20 4 6 17 24 27 42 35 59 108 84 147 51 7 -6 34 -12 59 -13 68 -3
70 -10 35 -119 -17 -53 -31 -102 -31 -109 0 -10 -55 -111 -95 -176 -6 -9 -23
-38 -39 -66 -85 -147 -118 -184 -137 -154 -4 8 -16 14 -26 14 -16 0 -18 11
-21 90 -1 50 4 125 11 167 13 74 12 78 -6 84 -13 4 -17 12 -14 25 3 10 1 19
-4 19 -12 0 -11 -37 1 -45 15 -9 12 -39 -6 -61 -15 -18 -15 -18 -8 5 4 16 3
21 -5 17 -14 -9 -15 -86 -1 -86 6 0 10 -7 10 -15 0 -18 -16 -20 -23 -2 -3 6
-6 2 -6 -10 -1 -17 3 -21 17 -16 15 6 16 5 2 -11 -19 -25 -24 -67 -8 -77 10
-7 10 -9 1 -9 -9 0 -13 -19 -13 -60 0 -48 -4 -61 -19 -70 -22 -11 -26 -3 -56
128 -12 48 -21 69 -26 61 -15 -25 -32 7 -33 65 0 31 -4 56 -7 56 -3 0 -6 6 -7
13 -2 36 -14 64 -33 80 -13 11 -16 17 -8 17 11 0 11 2 -1 10 -8 5 -11 10 -6
10 5 0 -1 11 -14 25 -50 54 -128 19 -182 -82 -33 -61 -61 -158 -55 -189 2 -14
1 -26 -3 -29 -4 -2 -7 -36 -6 -75 1 -51 5 -73 16 -80 10 -7 11 -10 3 -10 -7 0
-13 -4 -13 -10 0 -6 9 -5 24 1 20 10 22 15 16 44 -24 106 53 361 116 385 33
13 56 0 84 -44 21 -36 80 -208 80 -238 0 -9 8 -36 19 -60 30 -70 36 -108 17
-108 -9 0 -16 -8 -16 -20 0 -12 -10 -24 -22 -30 -17 -6 -18 -9 -6 -9 15 -1 15
-4 0 -40 -9 -22 -20 -35 -23 -29 -4 5 -9 3 -12 -6 -3 -8 -1 -16 5 -18 6 -2 -6
-16 -26 -32 -44 -33 -74 -30 -113 12 -32 34 -76 126 -77 164 -1 32 -12 35 -41
11 -16 -13 -17 -15 -2 -10 19 7 23 -3 6 -20 -16 -16 3 -75 39 -121 16 -20 39
-56 52 -79 13 -23 27 -40 31 -37 5 3 11 -7 15 -21 6 -26 18 -32 29 -15 3 6 -1
17 -9 26 -25 25 -20 44 13 44 16 0 37 7 45 16 9 8 16 10 16 4 0 -6 -6 -13 -14
-16 -8 -3 -13 -11 -10 -18 3 -7 -45 -112 -107 -232 -61 -120 -128 -257 -149
-304 -46 -105 -119 -260 -123 -260 -1 0 1 53 6 117 4 65 9 361 11 658 3 567 7
625 57 880 23 120 81 316 104 351 8 13 46 44 83 68 l67 44 95 -16 c148 -26
256 -21 371 17 148 48 295 150 358 249 16 26 55 108 86 182 31 74 80 174 107
223 28 48 48 90 45 93 -3 3 -36 -2 -74 -11 -68 -18 -145 -21 -348 -16 -91 2
-121 -1 -175 -19 -180 -60 -325 -192 -407 -370 -33 -72 -53 -138 -53 -176 l0
-35 33 25 c19 15 37 26 40 26 4 0 45 25 91 55 79 52 279 152 337 170 41 12
237 114 310 161 106 68 85 20 -28 -64 -74 -54 -150 -94 -258 -137 -95 -38
-240 -112 -323 -167 -75 -50 -118 -74 -162 -93 -51 -21 -104 -57 -168 -112
l-44 -37 7 49 c37 259 153 713 215 842 45 92 93 139 196 189 l55 27 102 -33
c136 -44 242 -50 354 -22 111 28 220 76 268 117 l40 34 -28 1 c-27 0 -77 39
-77 60 0 17 20 11 27 -7 4 -10 11 -21 16 -24 19 -13 93 4 127 30 88 65 138
147 204 334 45 129 133 308 187 381 34 47 35 53 9 61 -12 4 -49 -7 -97 -28
-54 -24 -106 -39 -168 -47 -315 -41 -450 -85 -620 -205 -112 -79 -266 -259
-329 -385 -27 -52 -60 -149 -54 -156 3 -2 58 23 124 56 189 96 269 129 378
156 128 31 128 31 133 17 5 -14 -26 -28 -178 -83 -58 -21 -157 -63 -220 -93
-63 -30 -150 -70 -193 -88 -44 -18 -110 -58 -149 -87 l-69 -55 7 44 c4 24 32
127 62 229 30 102 77 273 104 379 31 123 55 201 66 212 10 9 68 37 128 63 252
109 371 202 447 351 50 97 117 298 138 409 14 76 9 296 -11 446 -6 47 -12 155
-14 241 -1 85 -5 161 -9 167 -18 29 -53 10 -136 -74z m66 -40 c-14 -38 -92
-202 -174 -364 -81 -162 -163 -333 -182 -380 -18 -47 -59 -143 -90 -215 -56
-127 -131 -345 -165 -475 -9 -35 -21 -73 -27 -84 -20 -37 -31 10 -24 100 4 52
3 84 -3 84 -5 0 -20 29 -32 64 -13 36 -28 62 -33 59 -5 -3 -6 -1 -2 5 4 6 -1
65 -10 132 -15 110 -15 130 -1 233 21 146 47 229 99 308 57 86 56 84 63 78 3
-4 -18 -53 -48 -110 -70 -136 -92 -231 -91 -374 2 -117 31 -280 59 -336 l17
-31 23 35 c13 19 35 78 49 131 13 54 36 114 49 134 30 44 50 87 118 252 81
201 412 840 427 826 1 -2 -9 -34 -22 -72z m-334 -336 c-105 -152 -177 -338
-211 -543 -18 -113 -37 -183 -45 -174 -8 9 27 257 49 344 29 114 105 275 176
370 55 74 81 76 31 3z m359 -226 c-10 -26 -30 -66 -44 -89 -15 -24 -27 -45
-27 -48 0 -2 -14 -27 -31 -54 -38 -63 -51 -105 -36 -120 7 -7 7 -11 1 -11 -5
0 -16 -15 -22 -34 -18 -49 -109 -148 -259 -281 -24 -20 -43 -46 -43 -57 0 -10
-5 -16 -10 -13 -6 4 -8 11 -5 16 4 5 -6 4 -21 -1 -42 -16 -40 -4 4 24 62 39
216 191 268 263 26 36 57 95 70 131 28 76 74 171 92 190 6 7 12 18 12 23 0 5
11 27 25 49 14 22 25 47 25 55 0 9 4 14 9 11 5 -4 2 -27 -8 -54z m455 -949
c-43 -83 -239 -229 -442 -331 -118 -60 -264 -120 -305 -126 -20 -3 -44 -8 -55
-12 -13 -5 -16 -4 -9 4 10 11 56 34 385 195 148 73 315 185 397 266 36 37 47
38 29 4z m-2192 -1107 c44 -53 83 -130 157 -313 67 -163 74 -185 114 -323 16
-52 39 -116 51 -142 23 -46 32 -98 17 -98 -5 0 -30 39 -58 86 -40 67 -60 91
-98 115 -67 41 -132 104 -182 174 -49 71 -56 87 -91 230 -15 61 -47 152 -71
202 -49 106 -60 143 -44 143 6 0 11 -5 11 -11 0 -6 22 -50 50 -98 56 -98 71
-136 106 -276 29 -114 69 -195 121 -249 47 -48 88 -77 97 -68 4 4 6 1 4 -7 -2
-7 5 -15 15 -16 31 -6 20 58 -38 205 -19 47 -59 150 -90 230 -52 134 -126 262
-143 246 -6 -6 -42 69 -42 88 1 11 54 -44 114 -118z m1232 -1857 c68 -17 56
-38 -36 -65 l-25 -7 28 -10 28 -9 -20 -33 c-13 -23 -16 -35 -8 -38 7 -2 -26
-3 -73 -3 -72 1 -93 -3 -140 -25 -30 -15 -57 -25 -59 -23 -2 2 12 36 32 76 37
75 58 94 142 130 48 20 72 22 131 7z m459 -99 c61 -23 129 -49 152 -57 l43
-15 -21 -29 c-25 -36 -56 -44 -122 -33 -29 4 -100 9 -158 9 -97 2 -112 5 -179
36 -40 18 -89 33 -110 34 -29 0 -36 3 -32 17 14 53 119 90 242 84 58 -3 100
-14 185 -46z m-431 -170 c98 -93 131 -187 123 -350 -4 -70 -2 -98 5 -94 18 11
-4 -19 -24 -34 -10 -7 -16 -18 -12 -23 3 -5 2 -8 -3 -7 -4 1 -21 -6 -36 -17
-37 -24 -116 -22 -172 5 -31 15 -46 31 -65 72 -22 47 -25 65 -24 168 0 105 3
123 33 202 18 49 37 90 41 93 5 3 23 -8 40 -25 39 -38 53 -40 17 -2 -38 40
-35 54 16 61 5 0 32 -21 61 -49z m-2418 -1801 c28 -27 30 -34 28 -87 -1 -31
-5 -64 -7 -72 -3 -8 -5 -22 -5 -30 3 -47 -16 -218 -32 -299 -17 -85 -39 -131
-62 -131 -12 0 -9 58 8 125 24 95 30 364 10 452 -9 40 -16 77 -16 83 0 15 37
-5 76 -41z m-151 -31 c-2 -29 -7 -169 -11 -310 -3 -142 -10 -258 -15 -258 -14
0 -69 80 -101 148 -25 53 -30 74 -29 135 1 40 5 87 10 105 17 57 123 231 143
232 3 0 5 -24 3 -52z m248 -85 c45 -104 50 -170 18 -272 -29 -95 -97 -189
-119 -166 -3 3 4 15 15 28 26 27 55 96 49 113 -3 7 -1 14 3 16 5 2 11 13 15
25 5 17 4 22 -6 18 -9 -4 -14 6 -15 30 -2 26 0 33 11 29 8 -3 16 -13 18 -22 3
-11 6 -7 10 11 4 20 1 27 -11 27 -15 1 -15 2 0 13 18 13 9 57 -11 57 -8 0 -8
6 0 20 8 15 8 20 -2 21 -10 0 -10 2 0 6 6 2 12 9 12 14 0 11 -22 7 -33 -6 -5
-5 -5 0 -2 12 3 13 7 36 7 53 1 44 12 37 41 -27z"/>
<path d="M408 8578 c-21 -7 -21 -7 4 -4 16 2 25 -1 22 -8 -3 -7 -12 -12 -22
-13 -9 -1 -51 -11 -91 -22 -41 -12 -83 -19 -92 -16 -9 3 -37 1 -61 -5 -23 -5
-70 -12 -103 -13 -48 -3 -61 -8 -63 -22 -3 -11 0 -15 7 -11 6 4 11 2 11 -3 0
-6 15 -11 33 -11 l32 -1 -24 -19 c-16 -14 -27 -17 -36 -10 -15 13 -25 3 -25
-26 0 -19 9 -24 77 -38 114 -24 150 -35 227 -67 72 -31 158 -46 200 -35 48 12
43 54 -14 114 -28 29 -41 20 -29 -21 13 -46 11 -55 -10 -62 -21 -6 -165 61
-195 91 -11 11 -40 18 -84 22 -68 5 -114 23 -92 37 6 4 36 9 65 11 96 7 187
31 303 80 61 26 112 50 112 54 0 8 -124 7 -152 -2z"/>
<path d="M7150 8266 c-96 -27 -167 -82 -225 -175 -19 -31 -58 -78 -85 -106
-37 -37 -46 -51 -34 -53 11 -3 0 -11 -26 -23 -26 -12 -80 -57 -134 -112 -93
-94 -132 -156 -171 -272 -23 -67 -32 -165 -16 -165 34 0 50 24 80 119 17 54
38 105 47 112 8 7 13 21 11 31 -3 10 -2 16 2 13 5 -2 29 27 56 66 44 65 80 98
92 85 3 -3 -16 -57 -42 -121 -26 -64 -48 -126 -50 -138 -2 -12 -6 -31 -8 -42
-3 -11 -7 -27 -9 -35 -1 -8 -7 -18 -13 -22 -7 -5 -6 -8 1 -8 6 0 -15 -53 -47
-117 -66 -135 -125 -321 -108 -337 26 -26 63 52 164 344 18 52 51 140 73 195
66 165 121 365 101 365 -18 0 25 52 79 96 30 25 69 68 86 97 56 93 166 156
314 180 39 6 72 15 72 20 0 5 -6 7 -14 4 -7 -3 -19 0 -25 6 -9 9 -14 8 -22 -5
-6 -11 -16 -14 -31 -10 -23 6 -23 6 2 13 18 5 12 7 -25 7 -27 0 -70 -5 -95
-12z"/>
<path d="M5637 8259 c-15 -9 -12 -18 25 -87 45 -84 67 -127 121 -242 57 -122
116 -347 153 -580 18 -118 27 -140 53 -140 16 0 18 8 14 77 -9 164 -79 466
-149 636 -28 71 -118 231 -167 298 -26 38 -36 45 -50 38z"/>
<path d="M7424 8108 c-5 -17 -1 -26 16 -38 40 -28 100 -82 100 -91 0 -13 -145
-55 -239 -69 -66 -10 -110 -10 -215 -1 -107 10 -139 10 -175 -1 -25 -7 -46
-18 -48 -24 -5 -14 160 -28 342 -28 128 -1 147 2 225 28 104 35 179 72 186 91
8 19 -87 118 -131 139 -44 21 -52 20 -61 -6z"/>
<path d="M274 8002 c-17 -11 -40 -61 -58 -127 -59 -217 -24 -376 140 -645 19
-31 39 -71 44 -90 12 -43 13 -140 1 -140 -11 0 -147 150 -241 265 -40 50 -92
112 -116 138 l-44 49 0 -46 c0 -29 5 -48 14 -53 16 -9 66 -79 66 -92 0 -5 10
-16 22 -24 34 -23 108 -96 108 -107 0 -6 -9 -10 -20 -10 -30 0 -24 -17 8 -24
34 -8 184 -145 250 -229 26 -34 65 -90 86 -124 51 -86 143 -302 154 -364 l10
-51 -37 35 c-20 19 -61 50 -91 67 -30 18 -92 70 -137 117 -86 88 -132 115
-233 139 -87 20 -139 26 -171 19 -28 -6 -29 -9 -29 -66 0 -37 4 -59 11 -59 8
0 8 -4 0 -13 -6 -9 -11 -65 -10 -149 l0 -136 37 -6 c134 -22 298 12 388 80 24
19 52 34 62 34 58 -1 158 -85 202 -169 31 -62 45 -181 48 -414 2 -97 4 -108
20 -105 12 2 19 17 24 53 12 92 8 329 -7 429 -8 55 -15 116 -15 137 0 21 -6
53 -14 71 -8 18 -31 76 -51 128 -45 116 -132 281 -198 375 -45 65 -48 73 -44
115 12 102 26 169 41 198 29 56 67 206 73 287 11 158 -30 292 -124 402 -76 89
-137 127 -169 105z"/>
<path d="M4169 7897 c-24 -19 -69 -47 -99 -64 -30 -17 -54 -36 -52 -42 1 -7
-3 -9 -9 -6 -6 4 -54 -13 -108 -39 -59 -28 -126 -52 -176 -61 -108 -21 -142
-41 -177 -101 -33 -59 -73 -171 -82 -231 l-6 -42 57 57 c69 68 95 90 190 158
81 58 327 214 338 214 22 0 -90 -103 -177 -162 -234 -159 -455 -363 -553 -513
-30 -46 -55 -86 -55 -89 0 -3 12 -1 28 4 15 4 54 16 87 26 33 9 92 33 130 53
39 19 75 36 82 37 32 6 177 144 227 216 13 18 63 92 113 163 49 72 104 159
122 194 18 36 53 87 77 115 47 52 100 134 92 142 -3 2 -25 -11 -49 -29z"/>
<path d="M10037 7915 c-51 -18 -85 -50 -97 -94 -8 -30 -7 -40 9 -61 26 -36 53
-36 108 3 60 42 105 120 81 143 -21 21 -58 25 -101 9z"/>
<path d="M4905 7903 c-64 -7 -151 -26 -162 -36 -7 -5 -13 -6 -13 -2 0 4 -6 3
-12 -2 -7 -6 -37 -16 -65 -24 -40 -9 -53 -17 -53 -31 0 -10 5 -18 11 -18 8 0
8 -4 0 -14 -22 -27 188 -165 304 -200 82 -24 225 -39 225 -24 0 4 8 8 18 8 38
1 -22 30 -62 30 -21 0 -36 3 -32 7 4 4 -27 13 -68 19 -45 7 -103 25 -143 45
-68 33 -182 102 -186 113 -1 3 14 15 35 25 34 19 167 42 313 56 83 7 206 -9
217 -29 5 -9 15 -16 23 -16 8 0 18 -6 22 -13 4 -8 36 -32 69 -55 34 -22 64
-48 68 -57 5 -15 -4 -16 -83 -13 -49 2 -87 0 -84 -4 2 -5 -1 -8 -6 -8 -6 0
-11 5 -11 10 0 6 -4 10 -10 10 -18 0 -11 -18 9 -25 20 -6 19 -35 -1 -35 -5 0
-6 5 -3 10 3 6 -3 10 -15 10 -19 0 -20 -2 -6 -15 11 -12 44 -15 157 -15 127 0
147 -2 187 -22 40 -21 152 -118 143 -125 -9 -9 10 -63 23 -63 23 0 31 58 11
80 -10 11 -21 17 -26 14 -4 -2 -13 5 -19 16 -6 11 -8 20 -5 20 15 0 -34 65
-75 98 -25 20 -90 83 -145 138 -148 149 -136 144 -345 142 -96 0 -188 -3 -205
-5z"/>
<path d="M7194 7705 c-86 -27 -182 -92 -274 -184 -83 -84 -145 -216 -165 -353
-4 -22 -11 -38 -19 -38 -8 0 -20 -15 -27 -32 -12 -31 -45 -91 -91 -166 l-21
-34 30 15 c16 9 44 29 62 46 18 17 37 31 42 31 5 0 9 13 9 29 0 16 7 37 16 46
15 15 18 15 37 -2 11 -10 47 -51 79 -92 58 -72 59 -74 41 -95 -10 -11 -24 -26
-32 -32 -11 -8 -11 -13 -2 -18 7 -5 26 3 45 17 l33 26 64 -30 c35 -16 71 -34
79 -39 49 -32 78 -42 113 -42 43 1 147 47 147 65 0 7 -16 23 -35 36 -43 29
-157 41 -204 21 -24 -9 -35 -9 -58 2 -42 20 -37 49 13 73 52 25 74 44 74 61 0
26 -27 14 -81 -36 -30 -27 -62 -50 -71 -50 -16 0 -105 99 -116 130 -3 8 -14
25 -25 37 -33 36 -33 106 -2 198 38 113 88 204 141 256 l46 44 -25 -50 c-26
-51 -47 -127 -66 -246 -14 -87 -14 -96 1 -81 7 7 16 12 20 12 5 0 -3 -11 -17
-25 -30 -31 -31 -35 -5 -35 11 0 20 6 20 13 1 6 28 32 62 57 144 107 216 219
238 373 6 47 9 91 5 96 -8 14 -29 13 -81 -4z m15 -62 c-6 -16 -21 -72 -34
-125 -22 -93 -25 -101 -86 -170 l-64 -72 -3 35 c-2 19 2 60 8 92 22 114 68
190 135 224 17 9 34 22 38 29 14 24 17 15 6 -13z"/>
<path d="M3453 7599 c-34 -16 -81 -49 -106 -72 -41 -41 -45 -48 -61 -136 -9
-50 -14 -96 -11 -101 3 -4 1 -10 -4 -12 -5 -1 -11 -42 -12 -89 l-4 -87 25 31
c14 17 41 47 61 66 48 48 63 80 88 182 11 48 38 123 60 168 22 44 36 81 33 81
-4 0 -35 -14 -69 -31z"/>
<path d="M834 7450 c-22 -9 -41 -40 -24 -40 6 0 10 -5 10 -11 0 -5 -4 -8 -9
-4 -13 8 -45 -41 -68 -105 -59 -161 -62 -409 -7 -587 28 -92 38 -187 26 -248
-7 -33 -8 -63 -4 -67 17 -17 60 38 67 86 5 34 21 64 54 108 90 119 111 154
142 233 79 203 31 477 -105 603 -49 45 -50 45 -82 32z"/>
<path d="M3228 7434 c-5 -4 -8 -13 -8 -21 0 -7 -8 -21 -19 -32 -50 -50 -86
-239 -69 -361 4 -30 5 -68 2 -85 -5 -25 0 -20 28 25 19 30 42 67 51 81 14 21
16 41 11 118 -3 52 0 123 6 164 12 74 11 125 -2 111z"/>
<path d="M4860 7293 c-433 -43 -794 -165 -1109 -373 -178 -118 -249 -176 -392
-321 -241 -245 -398 -490 -520 -810 -100 -264 -139 -488 -139 -792 0 -455 112
-816 376 -1212 172 -259 388 -474 649 -645 666 -436 1478 -517 2245 -225 94
36 366 176 425 220 16 12 75 55 130 96 204 150 463 440 601 674 171 292 267
579 295 889 13 137 6 466 -11 566 -76 442 -293 875 -599 1193 -56 58 -224 209
-312 279 -273 218 -729 399 -1143 454 -99 13 -397 17 -496 7z m391 -124 c717
-73 1334 -433 1713 -999 110 -164 231 -438 281 -635 57 -225 79 -518 56 -750
-45 -455 -286 -936 -643 -1281 -183 -176 -364 -305 -563 -399 -247 -117 -418
-173 -675 -221 -132 -24 -527 -25 -690 -1 -447 66 -911 287 -1235 588 -214
200 -403 473 -518 750 -100 240 -145 442 -154 689 -14 374 53 709 202 1015
256 525 717 932 1270 1122 157 54 434 112 600 126 92 8 260 6 356 -4z"/>
<path d="M5955 5859 c-175 -16 -317 -78 -439 -191 -123 -113 -215 -269 -257
-437 -19 -74 -21 -104 -17 -245 6 -172 21 -242 76 -351 144 -287 408 -447 737
-448 197 0 365 58 538 186 79 59 89 75 61 98 -9 7 -43 46 -76 86 l-59 73 -53
-54 c-29 -30 -74 -68 -101 -85 -159 -101 -395 -103 -585 -6 -109 56 -212 184
-257 319 -24 73 -27 96 -27 226 -1 113 3 158 18 204 62 203 201 339 401 391
211 54 478 -30 561 -178 10 -17 14 -15 53 32 23 27 65 67 93 87 l51 38 -66 62
c-153 145 -396 217 -652 193z"/>
<path d="M3700 5840 l-215 -5 37 -18 c46 -23 66 -46 84 -94 17 -49 20 -1314 3
-1377 -11 -39 -37 -71 -94 -113 l-30 -22 243 0 c133 -1 242 3 242 8 0 4 -17
20 -38 34 -73 48 -76 65 -79 390 l-3 287 400 0 400 0 0 -285 c0 -322 -1 -329
-70 -388 -24 -20 -41 -39 -39 -41 8 -9 457 -11 466 -2 4 4 0 13 -11 20 -45 27
-75 59 -89 95 -14 33 -16 132 -19 712 l-3 674 22 35 c12 20 40 46 63 59 22 12
40 26 40 30 0 5 -108 8 -240 8 -132 0 -240 -3 -240 -7 0 -3 16 -14 36 -25 19
-10 45 -33 57 -49 21 -30 22 -41 25 -328 l3 -298 -396 0 -396 0 3 298 c3 286
4 298 25 327 12 17 33 37 47 45 32 17 34 41 4 38 -13 -1 -120 -5 -238 -8z"/>
<path d="M1 7133 c-1 -113 3 -136 23 -116 4 4 19 9 34 11 32 4 72 43 72 70 0
10 -27 43 -60 73 -33 29 -61 60 -63 69 -2 8 -5 -40 -6 -107z"/>
<path d="M1375 7118 c-27 -61 -106 -417 -130 -593 -22 -159 -31 -184 -77 -226
-34 -31 -40 -41 -34 -63 16 -66 66 -37 144 82 30 48 72 106 92 128 55 64 86
129 119 249 17 61 40 138 52 173 16 48 19 66 10 75 -31 31 -77 -47 -112 -188
-21 -88 -71 -210 -102 -250 -15 -20 -15 -20 -22 6 -4 15 4 67 18 125 14 54 28
124 32 154 4 30 15 96 26 145 11 50 24 113 31 141 6 29 8 57 4 63 -13 21 -36
11 -51 -21z"/>
<path d="M2535 6330 c-33 -5 -134 -11 -225 -14 -111 -4 -195 -12 -255 -25 -49
-11 -137 -27 -193 -36 -220 -35 -401 -110 -551 -229 -194 -155 -236 -198 -333
-341 -60 -89 -78 -130 -78 -184 0 -20 -14 -101 -31 -181 -22 -106 -32 -184
-36 -292 -6 -141 -5 -148 13 -148 21 0 48 -35 39 -50 -4 -6 -1 -10 4 -10 6 0
11 3 11 8 0 28 34 201 64 325 86 353 235 619 459 819 89 79 236 154 337 173
35 6 35 6 10 -9 -14 -8 -48 -26 -77 -40 -100 -47 -194 -116 -297 -218 -113
-112 -185 -214 -259 -368 -75 -154 -169 -462 -181 -595 -3 -27 -6 -51 -7 -52
-2 -4 -6 -20 -8 -33 0 -5 -8 -10 -15 -10 -18 0 -72 -48 -64 -56 3 -3 15 4 26
16 20 22 37 15 22 -10 -4 -7 -6 -19 -3 -26 2 -6 -6 -19 -19 -28 -28 -20 -42
-20 -34 0 3 8 2 12 -4 9 -6 -4 -10 -56 -9 -123 0 -97 2 -113 12 -92 6 14 14
27 18 30 14 11 48 90 69 160 12 41 37 101 56 132 53 88 109 212 149 333 46
139 140 335 210 440 79 119 143 188 295 319 14 12 79 59 146 104 125 86 242
139 414 189 47 13 102 31 122 40 20 8 48 13 61 9 14 -3 32 0 43 8 13 10 23 11
31 4 20 -16 15 -29 -9 -26 -13 1 -77 -15 -143 -36 -342 -110 -585 -258 -787
-478 -107 -117 -164 -199 -233 -337 -55 -109 -99 -220 -91 -228 7 -7 115 138
159 211 16 28 32 53 36 56 3 3 24 28 46 55 67 85 96 114 215 214 161 136 288
228 407 295 142 80 415 205 497 227 70 19 166 26 166 12 0 -5 -60 -27 -133
-51 -145 -47 -285 -110 -420 -187 -107 -61 -270 -167 -313 -203 -17 -15 -51
-43 -75 -62 -138 -111 -274 -250 -372 -380 -7 -9 -19 -24 -27 -35 -14 -18 -14
-18 9 -3 13 9 28 15 35 14 6 -2 8 -1 4 1 -15 9 -8 23 11 23 13 0 19 -7 19 -27
0 -14 7 -32 16 -38 22 -16 20 -24 -4 -18 -10 3 -18 10 -17 15 1 5 -8 14 -20
19 -22 8 -28 2 -25 -23 2 -11 -27 -18 -33 -8 -4 6 -11 10 -16 10 -6 0 -8 -4
-5 -9 3 -5 -1 -11 -9 -15 -8 -3 -12 -12 -9 -20 3 -8 12 -12 20 -9 8 3 14 -1
14 -10 0 -15 -23 -17 -36 -4 -12 12 -32 -13 -27 -33 6 -23 -11 -57 -21 -41 -4
6 -2 11 3 11 6 0 11 8 11 18 -1 13 -8 9 -31 -16 -16 -18 -27 -38 -23 -44 4 -6
3 -8 -3 -5 -23 15 -261 -397 -249 -430 3 -8 2 -12 -2 -9 -11 6 -62 -151 -62
-189 0 -28 4 -25 84 57 47 48 100 110 120 140 118 179 275 367 408 489 92 84
264 230 318 271 63 46 407 227 434 228 11 0 30 10 43 22 31 29 42 14 13 -17
-13 -14 -19 -25 -14 -25 18 -1 -30 -30 -49 -30 -61 0 -363 -189 -528 -330
-152 -130 -275 -244 -311 -288 -15 -19 -57 -66 -94 -105 -57 -61 -139 -171
-207 -277 l-18 -28 58 30 c32 16 87 51 123 76 36 25 97 67 135 94 39 26 90 66
115 88 25 22 101 87 169 143 69 56 168 140 220 187 53 47 123 108 156 135 33
28 66 56 73 62 17 17 90 36 113 30 22 -6 32 17 63 153 27 118 47 174 113 308
25 51 44 94 41 97 -5 5 -194 -94 -240 -126 -14 -11 -29 -19 -33 -19 -4 0 -37
-22 -74 -48 -36 -27 -82 -58 -101 -70 -20 -11 -46 -32 -59 -46 -14 -14 -30
-26 -36 -26 -6 0 -22 -12 -36 -26 -40 -44 -183 -131 -214 -131 -16 0 -31 -5
-33 -11 -2 -6 -10 -8 -18 -5 -8 3 -14 0 -14 -6 0 -6 -6 -11 -13 -11 -7 0 -28
-14 -46 -31 -26 -23 -36 -27 -42 -17 -7 10 -9 9 -9 -5 0 -9 -11 -23 -25 -29
-14 -6 -25 -15 -25 -20 0 -4 -7 -8 -16 -8 -10 0 -14 7 -12 23 2 17 8 21 27 19
18 -3 22 0 18 12 -6 14 26 33 46 28 4 -1 7 5 7 13 0 15 45 40 63 36 5 -1 6 3
2 9 -3 5 -1 10 4 10 6 0 11 6 11 14 0 7 12 16 28 19 15 3 39 8 55 11 18 4 27
2 27 -6 0 -8 5 -6 11 5 5 9 7 23 3 30 -4 6 1 4 12 -5 16 -14 22 -14 37 -3 13
10 15 14 5 18 -10 4 -10 6 0 6 22 2 27 4 38 20 9 12 8 18 -5 29 -9 7 -11 11
-4 8 18 -9 62 11 112 53 25 21 80 60 121 87 69 46 97 64 215 132 82 47 191 95
213 94 16 -1 49 25 120 97 69 71 115 108 160 130 34 17 62 35 62 40 0 5 -17
17 -37 27 -44 21 -191 28 -288 14z"/>
<path d="M517 6092 c-15 -2 -35 -14 -45 -28 -9 -14 -38 -51 -64 -82 -28 -35
-48 -72 -52 -93 -3 -20 -10 -48 -16 -63 -15 -39 -13 -46 13 -46 29 0 106 54
108 75 2 20 3 24 22 67 10 21 17 43 17 49 0 6 12 33 26 59 14 27 25 52 23 57
-2 4 -16 7 -32 5z"/>
<path d="M10002 5820 c-28 -12 -72 -102 -72 -149 0 -51 35 -115 104 -188 55
-59 176 -153 176 -137 0 32 -149 182 -169 170 -5 -3 -7 3 -4 14 4 15 -2 22
-21 30 -16 6 -24 15 -21 21 4 6 2 30 -5 54 -23 83 19 145 88 129 44 -11 98
-41 131 -74 l31 -32 0 40 c0 33 -6 45 -32 68 -67 56 -148 77 -206 54z"/>
<path d="M1 5664 c-1 -80 1 -89 27 -123 36 -46 124 -188 140 -224 16 -37 59
-210 67 -269 6 -45 -4 -64 -20 -37 -4 6 -13 8 -21 5 -11 -4 -11 -2 -2 13 26
42 -59 303 -138 422 -25 38 -47 69 -50 69 -2 0 -3 -75 -2 -167 3 -166 3 -168
26 -171 12 -2 22 -10 22 -19 0 -8 6 -13 13 -10 6 2 11 13 11 25 -1 11 5 23 12
26 11 4 13 -1 8 -22 -4 -15 -12 -31 -18 -35 -8 -6 -7 -10 2 -14 6 -2 12 -11
12 -19 0 -8 7 -14 16 -14 8 0 13 -4 10 -9 -7 -10 26 -55 64 -88 14 -13 22 -23
18 -23 -4 0 19 -44 50 -97 32 -54 62 -97 67 -96 6 1 15 -3 22 -9 20 -16 26 35
19 157 -8 135 -39 271 -101 436 -63 173 -53 171 35 -7 73 -149 117 -372 108
-553 -3 -55 -2 -99 1 -97 3 2 6 -15 6 -37 0 -23 4 -55 8 -70 5 -17 4 -26 -1
-23 -5 3 -7 -5 -5 -19 6 -26 48 -71 56 -58 11 19 37 247 40 358 5 154 -4 230
-44 346 -60 179 -117 267 -251 394 -79 74 -176 145 -200 145 -3 0 -7 -39 -7
-86z"/>
<path d="M855 5559 c-55 -51 -99 -134 -146 -274 -33 -100 -33 -101 -33 -295 0
-193 1 -197 37 -333 33 -124 61 -197 77 -197 3 0 5 39 5 87 0 49 3 132 7 185
5 71 4 98 -5 102 -9 3 -9 5 1 5 14 1 17 31 2 31 -6 0 -9 55 -6 153 3 125 10
177 36 292 17 77 35 162 41 189 5 27 17 58 26 68 34 38 3 28 -42 -13z"/>
<path d="M2253 5391 c-72 -39 -118 -76 -258 -207 -97 -91 -229 -204 -345 -297
-115 -93 -167 -133 -175 -139 -5 -4 -23 -19 -40 -34 -16 -14 -42 -32 -58 -40
-15 -8 -66 -40 -113 -71 -67 -43 -85 -59 -81 -74 3 -11 1 -19 -4 -19 -5 0 -9
6 -9 14 0 11 -6 12 -37 0 -21 -7 -37 -18 -36 -23 2 -6 -3 -11 -11 -11 -14 0
-126 -100 -126 -113 0 -13 92 -7 192 13 130 27 204 53 200 71 -3 10 0 11 8 3
23 -23 245 87 385 191 33 25 70 49 82 54 24 11 39 31 23 31 -6 0 -8 5 -5 10 4
6 14 9 23 8 9 -2 16 2 15 8 -1 7 9 15 23 18 14 4 23 10 20 15 -3 4 3 14 12 23
39 36 152 214 153 241 0 12 3 16 6 9 3 -8 19 6 41 35 20 27 47 56 59 66 30 24
116 198 111 225 -3 21 -4 21 -55 -7z"/>
<path d="M10086 5305 c-3 -8 -12 -15 -20 -15 -40 0 -189 -84 -238 -133 -62
-63 -78 -99 -78 -176 0 -58 14 -88 26 -57 3 9 10 13 15 10 5 -3 9 0 9 5 0 6
15 17 33 25 l32 14 -27 1 c-61 2 -40 82 39 151 38 34 185 110 212 110 14 0 14
2 1 10 -31 20 3 23 57 4 69 -23 88 -47 57 -72 -12 -9 -24 -29 -28 -43 -7 -33
-176 -207 -195 -201 -8 3 -11 0 -8 -5 4 -6 -9 -24 -28 -42 -36 -33 -50 -39
-40 -18 4 6 -5 -1 -19 -16 -15 -16 -24 -32 -21 -37 3 -4 -5 -6 -17 -3 -22 4
-23 4 -4 -11 11 -9 23 -16 26 -16 4 0 38 32 76 71 38 39 97 91 131 116 34 25
85 74 112 109 50 62 51 65 51 129 0 52 -4 69 -20 85 -22 22 -69 26 -89 8 -11
-10 -13 -10 -7 0 5 8 0 12 -12 12 -11 0 -22 -7 -26 -15z"/>
<path d="M0 5065 c0 -67 11 -97 23 -62 2 6 6 -1 9 -16 5 -24 3 -28 -13 -24
-15 4 -19 0 -19 -24 0 -16 5 -29 13 -29 6 -1 43 -30 81 -65 39 -36 75 -65 82
-65 6 0 19 -10 28 -22 9 -13 14 -16 11 -8 -4 8 1 6 11 -5 13 -16 16 -17 11 -3
-3 10 -2 20 2 23 11 6 44 -42 37 -54 -3 -4 1 -8 9 -8 15 0 4 27 -42 100 -27
43 -48 50 -33 12 7 -19 6 -25 -4 -25 -19 0 -27 38 -11 53 14 13 13 15 -69 137
-61 92 -72 103 -88 94 -10 -6 -10 -4 -2 7 9 11 6 19 -12 37 l-24 23 0 -76z"/>
<path d="M7645 4920 c-3 -5 9 -29 28 -53 19 -23 49 -64 66 -90 31 -46 32 -51
22 -92 -32 -128 4 -245 74 -245 35 0 95 82 95 130 0 11 5 20 10 20 16 0 11 43
-8 71 -32 49 -237 257 -259 263 -12 4 -24 2 -28 -4z"/>
<path d="M10203 4872 c-17 -26 -38 -63 -46 -82 -8 -19 -24 -55 -35 -80 -34
-73 -46 -131 -30 -141 19 -12 36 -11 41 4 4 7 6 6 6 -4 1 -10 13 -19 32 -23
62 -12 69 -9 69 30 0 21 -4 33 -10 29 -7 -4 -7 3 0 20 13 34 13 95 0 95 -5 0
-11 -9 -11 -20 -3 -44 -18 -80 -34 -80 -7 0 -20 -7 -29 -15 -9 -9 -17 -11 -21
-5 -3 5 -1 10 4 10 6 0 11 14 11 30 0 47 27 103 45 96 9 -3 13 -2 10 4 -3 6 0
10 8 10 8 0 17 6 20 13 4 10 -2 13 -19 9 -13 -2 -24 -1 -24 3 0 13 28 34 35
27 5 -4 5 3 2 16 -3 12 -1 20 4 16 5 -3 9 15 9 40 0 25 -1 46 -2 46 -2 0 -17
-21 -35 -48z"/>
<path d="M1 4676 c0 -106 4 -174 10 -171 5 4 9 2 9 -4 0 -5 -6 -11 -13 -14 -6
-2 -9 -8 -5 -12 13 -13 55 -8 100 13 24 11 58 25 77 31 33 11 33 10 18 -7 -10
-10 -17 -24 -17 -31 0 -16 -47 -33 -97 -35 -24 0 -43 -5 -43 -10 0 -6 -5 -5
-12 2 -21 21 -28 13 -28 -33 0 -26 5 -45 11 -45 6 0 9 -6 6 -14 -8 -20 41 -27
115 -15 65 11 239 65 248 78 3 4 13 10 22 14 15 5 5 23 -63 106 -44 55 -101
117 -127 138 -26 21 -64 52 -85 71 -21 18 -43 30 -49 26 -6 -4 -8 -3 -5 3 3 5
-11 27 -33 48 l-39 38 0 -177z"/>
<path d="M2432 4613 c-53 -29 -160 -131 -189 -181 -27 -44 -28 -54 -28 -172
-1 -110 -3 -131 -25 -179 -19 -43 -26 -51 -34 -39 -9 12 -11 6 -12 -26 0 -23
-11 -73 -22 -111 -22 -72 -105 -225 -122 -225 -27 0 -66 176 -56 254 12 91 78
176 137 176 16 0 29 2 29 5 0 15 -32 65 -41 65 -24 0 -90 -42 -113 -73 -53
-70 -70 -125 -70 -228 0 -90 2 -100 40 -179 l39 -85 -2 -145 c-3 -201 -24
-377 -77 -639 -27 -132 -46 -253 -47 -295 -1 -108 -15 -51 -40 169 -34 294
-35 302 -22 445 8 91 8 156 2 200 -28 192 -295 554 -333 453 -13 -33 -27 -169
-27 -264 1 -161 53 -278 189 -423 35 -38 73 -88 83 -112 40 -90 60 -264 68
-603 4 -162 10 -266 16 -268 6 -1 18 39 28 90 10 50 26 108 36 127 24 48 164
167 210 179 20 6 67 13 104 16 107 9 162 22 238 56 153 67 289 169 289 217 0
31 -37 54 -108 68 -142 28 -294 9 -376 -45 -59 -39 -144 -133 -177 -194 -31
-58 -132 -177 -151 -177 -4 0 -8 10 -8 23 0 47 111 501 130 531 19 32 111 117
160 149 14 9 59 23 100 32 102 21 165 54 244 126 93 86 208 287 190 334 -13
32 -183 13 -292 -31 -100 -42 -187 -155 -270 -354 -12 -30 -34 -71 -48 -91
-24 -35 -71 -66 -82 -54 -10 10 28 372 47 447 11 42 35 100 54 130 44 68 81
154 106 249 11 41 34 104 51 140 29 62 33 67 69 73 47 7 113 54 145 103 20 31
28 62 39 163 14 124 10 165 -16 182 -16 11 -18 10 -55 -9z m14 -225 c-11 -85
-51 -137 -118 -153 -21 -6 -30 -2 -43 19 -42 63 -4 163 91 239 l59 48 9 -50
c5 -27 5 -74 2 -103z m-858 -756 c16 -20 52 -82 81 -137 57 -110 58 -118 53
-330 -2 -107 -2 -109 -19 -85 -10 14 -43 55 -74 93 -133 158 -172 309 -132
508 l5 29 29 -20 c15 -11 41 -37 57 -58z m1012 -23 c0 -6 -20 -50 -45 -98 -50
-96 -147 -203 -200 -221 -46 -15 -169 -40 -173 -35 -16 16 136 265 182 300 58
44 236 85 236 54z m-86 -774 c39 -8 74 -19 79 -24 26 -26 -156 -146 -278 -183
-72 -22 -237 -57 -244 -52 -2 2 0 19 3 39 5 24 26 56 67 100 120 128 206 155
373 120z"/>
<path d="M480 4440 c0 -11 4 -28 10 -38 5 -9 18 -35 28 -57 61 -127 113 -225
138 -257 16 -21 37 -49 47 -63 15 -21 57 -36 57 -20 0 30 -193 384 -238 438
-20 23 -42 22 -42 -3z"/>
<path d="M7708 4353 c-18 -21 -68 -122 -68 -137 0 -6 4 -5 9 2 6 10 10 7 13
-13 4 -19 2 -25 -8 -21 -8 3 -11 0 -7 -10 3 -7 10 -14 15 -14 6 0 8 -9 5 -20
-3 -11 -1 -20 4 -20 5 0 4 -8 -2 -19 -9 -14 -9 -25 4 -50 9 -17 11 -29 6 -26
-12 8 -11 -2 1 -26 8 -13 7 -19 0 -19 -6 0 -8 -5 -4 -12 4 -7 9 -24 10 -38 1
-14 10 -52 19 -85 9 -33 19 -69 21 -79 6 -30 22 -42 36 -28 9 9 9 19 0 45 -7
18 -12 48 -12 65 0 18 -9 74 -21 125 -25 113 -24 258 4 301 10 14 21 26 26 26
8 0 53 -88 65 -127 4 -13 10 -23 14 -23 4 0 7 -10 8 -22 1 -13 11 -61 23 -108
15 -57 22 -105 19 -148 -2 -47 1 -65 12 -72 8 -5 17 -7 21 -4 4 2 6 -4 4 -13
-1 -10 -8 -17 -16 -15 -9 2 -10 0 -1 -10 8 -11 7 -30 -4 -78 -8 -35 -19 -69
-24 -75 -6 -7 -7 -15 -4 -18 12 -12 46 43 60 96 16 62 17 70 4 62 -5 -3 -2 18
7 47 9 33 13 69 9 98 -3 25 -8 65 -11 88 -7 46 -52 181 -89 267 -46 103 -111
150 -148 108z"/>
<path d="M846 4333 c-18 -5 -19 -15 -13 -212 6 -200 7 -210 42 -326 20 -66 50
-150 66 -188 31 -73 120 -226 170 -292 17 -22 79 -109 137 -193 59 -84 136
-195 172 -246 56 -80 135 -166 153 -166 8 0 -8 50 -28 91 -10 19 -39 63 -64
99 -26 36 -94 133 -151 215 -57 83 -121 174 -143 203 -75 99 -136 205 -182
313 -76 180 -103 317 -108 544 -3 105 -6 130 -20 140 -9 7 -14 15 -10 18 3 4
4 6 2 6 -2 -1 -13 -4 -23 -6z"/>
<path d="M1135 4196 c-17 -12 -18 -16 -5 -32 9 -11 10 -15 3 -10 -23 13 -13
-9 16 -36 20 -19 27 -34 24 -50 -7 -35 13 -78 36 -78 27 0 61 47 61 84 0 33
-16 62 -58 109 -29 30 -49 34 -77 13z"/>
<path d="M7542 4169 c0 -13 -8 -49 -17 -79 -22 -73 -15 -213 14 -291 44 -115
91 -178 200 -264 119 -94 169 -160 207 -280 19 -58 26 -106 28 -172 1 -51 7
-98 14 -106 9 -10 9 -16 -1 -26 -9 -10 -8 -11 6 -6 21 9 22 -3 2 -29 -19 -25
-19 -37 0 -30 8 4 12 10 9 15 -3 6 0 17 7 25 18 22 24 197 9 283 -12 74 -59
177 -121 268 -16 22 -71 73 -123 112 -127 95 -177 183 -206 362 -12 74 -10
102 17 208 5 20 3 23 -12 17 -11 -4 -22 -2 -26 5 -4 7 -7 2 -7 -12z"/>
<path d="M9998 4047 c-44 -39 -122 -146 -148 -201 -47 -104 -57 -246 -23 -331
42 -105 41 -117 -27 -365 -21 -80 -42 -157 -45 -172 -3 -16 -9 -28 -13 -28 -5
0 -23 21 -42 48 -30 42 -34 56 -40 137 -4 55 -13 105 -24 128 -25 51 -89 104
-150 123 -44 13 -56 14 -91 2 l-40 -14 3 -58 c1 -32 12 -80 24 -107 28 -67
111 -142 175 -159 66 -19 87 -33 140 -103 l46 -61 -11 -86 c-6 -47 -8 -98 -5
-114 5 -23 3 -27 -8 -21 -8 5 -11 5 -7 0 4 -4 2 -15 -4 -24 -10 -12 -8 -12 8
1 14 12 24 14 30 8 7 -7 11 -7 11 2 1 7 8 47 17 88 9 41 21 118 26 170 5 52
25 156 44 230 19 74 40 169 47 210 10 59 22 88 57 140 63 93 72 113 88 197 15
78 20 393 7 393 -5 0 -25 -15 -45 -33z"/>
<path d="M0 3945 c0 -40 3 -47 28 -56 37 -14 69 -50 92 -104 18 -41 22 -45 40
-35 13 7 20 21 20 40 0 27 41 80 62 80 5 0 8 10 8 22 0 20 -4 18 -40 -17 -36
-35 -40 -37 -46 -19 -13 36 -77 106 -110 120 -50 21 -54 18 -54 -31z"/>
<path d="M291 3785 c-70 -70 -204 -179 -253 -208 -31 -18 -38 -28 -38 -54 0
-18 2 -33 5 -33 19 0 109 55 150 92 28 24 74 63 103 87 60 49 112 119 112 150
0 33 -18 25 -79 -34z"/>
<path d="M7152 3608 c-20 -20 -14 -34 30 -63 65 -43 83 -65 106 -130 26 -77
40 -147 52 -258 9 -86 20 -143 61 -305 22 -82 23 -115 9 -143 -9 -16 -7 -19
10 -19 11 0 23 0 27 0 9 -1 15 28 14 60 0 14 -1 42 -2 62 -1 21 -6 35 -11 32
-5 -3 -8 12 -6 33 1 21 -3 61 -9 88 -12 52 -44 231 -67 372 -7 45 -9 80 -4 77
4 -3 -1 18 -12 46 -11 28 -20 53 -20 55 0 2 -8 2 -17 -2 -12 -3 -9 1 6 12 14
11 26 14 30 8 3 -6 20 -17 38 -26 17 -9 37 -22 45 -30 7 -7 28 -23 46 -36 39
-27 128 -136 171 -208 16 -29 42 -91 57 -138 24 -79 26 -96 21 -198 -6 -113
-29 -213 -67 -287 -24 -46 -72 -94 -141 -141 -54 -36 -109 -91 -109 -109 0 -4
10 -10 22 -13 26 -7 97 38 186 118 72 66 102 113 137 216 91 267 25 541 -182
756 -67 70 -149 113 -294 157 -98 29 -110 31 -127 14z"/>
<path d="M408 3553 c-15 -16 -36 -59 -49 -98 -20 -62 -32 -80 -112 -163 -63
-67 -98 -113 -117 -156 -111 -244 -101 -440 30 -585 39 -44 39 -67 -4 -244
-19 -78 -37 -162 -41 -187 -4 -24 -22 -83 -40 -130 -61 -156 -75 -242 -72
-444 2 -162 4 -179 20 -182 20 -3 20 0 17 82 -1 34 3 64 8 68 5 3 13 43 16 88
16 198 20 224 49 293 32 77 80 137 159 197 137 104 145 107 213 97 33 -5 76
-13 95 -19 85 -25 252 0 357 53 107 55 283 291 288 389 2 44 -9 57 -80 90 -44
20 -66 23 -175 23 l-125 0 -81 -42 c-82 -42 -202 -133 -241 -182 -51 -65 -115
-234 -98 -261 3 -5 -13 -11 -35 -15 -38 -6 -96 -44 -191 -125 l-37 -30 15 62
c87 371 82 355 143 397 92 62 159 159 201 290 27 81 32 112 33 201 1 115 -12
172 -66 288 -25 56 -31 83 -36 170 -2 56 -8 102 -12 102 -3 0 -18 -12 -32 -27z"/>
<path d="M7402 3325 c27 -78 52 -135 59 -135 5 0 5 -7 2 -17 -4 -10 -2 -14 4
-10 7 5 9 -1 5 -15 -4 -16 -2 -19 8 -13 8 5 11 4 6 -3 -3 -6 8 -51 24 -102 37
-110 48 -228 30 -324 -7 -36 -16 -69 -21 -72 -14 -8 -11 -48 5 -70 13 -17 16
-17 29 -4 18 21 50 127 41 142 -4 6 -3 8 3 5 6 -4 10 29 10 93 0 55 -3 98 -7
95 -3 -2 -4 10 -2 26 3 17 0 40 -6 52 -5 12 -22 66 -38 120 -17 63 -33 101
-43 104 -21 8 -68 57 -64 69 1 5 -9 23 -23 39 -14 17 -24 26 -22 20z"/>
<path d="M2748 3304 c-15 -14 -8 -42 16 -71 13 -15 33 -48 46 -73 49 -98 170
-188 327 -244 40 -14 94 -36 120 -50 57 -28 292 -202 418 -308 151 -127 425
-425 500 -543 24 -38 110 -155 128 -175 32 -36 180 -298 227 -402 27 -62 68
-147 89 -188 22 -41 56 -113 76 -160 35 -82 125 -349 125 -371 0 -6 7 -35 16
-65 13 -47 19 -54 41 -54 29 0 29 2 -19 175 -47 169 -94 299 -159 432 -32 67
-68 146 -80 175 -35 91 -159 319 -225 415 -111 161 -184 264 -235 332 -66 88
-424 448 -499 503 -111 81 -446 355 -462 379 -34 50 -107 121 -117 115 -7 -4
-11 1 -11 12 0 20 -23 36 -34 25 -10 -10 -7 -35 4 -28 6 3 10 0 10 -7 0 -7 32
-44 70 -82 39 -38 70 -72 70 -76 0 -10 -119 24 -162 46 -70 37 -198 163 -198
195 0 14 68 10 99 -6 16 -8 31 -11 35 -8 3 4 6 2 6 -4 0 -12 46 -34 54 -26 12
12 6 25 -8 20 -11 -4 -13 -1 -9 10 5 13 2 15 -12 9 -11 -4 -16 -4 -13 0 10 9
-11 28 -74 63 -54 31 -145 51 -160 35z"/>
<path d="M8705 3160 c8 -12 19 -220 17 -325 -7 -556 2 -671 69 -904 28 -96 47
-141 124 -304 32 -69 86 -109 225 -166 82 -34 90 -35 242 -39 132 -4 158 -7
163 -20 15 -39 64 -309 80 -432 9 -74 25 -193 36 -265 24 -152 37 -385 22
-385 -6 0 -16 7 -23 15 -6 7 -37 28 -68 46 -31 17 -72 45 -91 61 -24 21 -36
26 -41 18 -10 -17 -42 -5 -116 41 -52 33 -70 39 -116 39 -84 0 -175 37 -314
125 -66 42 -365 389 -388 450 -10 28 79 -69 190 -206 52 -64 122 -143 157
-175 98 -92 239 -162 340 -169 l57 -4 -17 31 c-10 16 -70 80 -133 142 -64 62
-150 155 -192 207 -42 52 -105 119 -139 148 -35 30 -131 122 -213 203 -81 82
-153 147 -160 145 -6 -3 -12 6 -12 19 -1 13 -1 24 1 24 20 0 378 -322 505
-454 47 -48 142 -145 211 -215 70 -69 144 -151 167 -181 22 -30 50 -64 63 -76
36 -32 95 -65 102 -57 13 12 7 138 -8 196 -52 199 -243 429 -477 574 -25 15
-79 51 -119 79 -125 85 -310 178 -374 187 -16 2 -43 9 -59 16 -31 12 -148 31
-155 25 -2 -2 1 -4 7 -4 6 0 9 -6 7 -12 -2 -7 6 -35 20 -63 13 -27 49 -129 80
-225 94 -289 125 -371 175 -460 26 -47 69 -125 95 -175 36 -66 70 -111 129
-170 108 -107 165 -132 334 -141 115 -7 123 -6 224 25 l106 32 64 -32 c122
-61 145 -83 166 -152 11 -34 25 -90 32 -125 l13 -63 31 7 c17 3 32 7 33 8 1 1
-3 23 -9 50 -6 27 -9 129 -7 235 3 151 7 192 20 211 34 51 112 131 124 126 7
-2 60 0 117 5 79 7 116 16 158 37 l55 27 3 83 c2 67 0 82 -12 82 -8 0 -18 -4
-21 -10 -3 -6 -12 -10 -18 -10 -7 0 -1 9 13 19 13 11 28 17 32 15 4 -3 8 61 8
143 l0 148 -20 -25 c-11 -14 -20 -31 -20 -38 0 -7 -27 -45 -60 -85 -33 -41
-60 -77 -60 -80 0 -4 -8 -15 -17 -25 -10 -10 -29 -33 -43 -52 -78 -106 -150
-180 -173 -180 -7 0 -30 -29 -52 -65 -22 -35 -43 -64 -47 -65 -9 0 -15 35 -28
155 -24 214 -70 511 -101 657 l-13 56 44 56 c86 112 226 206 389 261 58 19
127 49 153 65 l48 30 0 300 c0 166 -4 298 -9 296 -5 -3 -21 -36 -36 -73 -14
-38 -32 -77 -39 -88 -23 -37 -48 -116 -42 -131 5 -14 9 -14 24 -3 9 7 -16 -20
-55 -61 -80 -82 -212 -258 -256 -339 -15 -29 -32 -49 -37 -46 -14 9 93 207
159 295 85 114 112 160 206 352 86 177 86 177 83 247 l-3 70 -120 -80 c-201
-133 -291 -248 -351 -444 -24 -79 -28 -110 -30 -243 l-3 -154 -42 -89 c-35
-74 -70 -119 -93 -119 -3 0 -10 17 -15 38 -16 54 -13 183 5 303 19 122 14 292
-11 384 -45 168 -187 378 -332 490 -42 33 -111 87 -153 120 -41 33 -102 80
-135 105 -77 57 -166 126 -186 145 -9 8 -20 15 -26 15 -6 0 -13 7 -17 15 -3 8
-10 15 -16 15 -6 0 -8 -4 -5 -10z m133 -194 c16 -35 59 -106 94 -157 35 -52
77 -116 92 -144 16 -27 61 -102 101 -165 73 -116 100 -166 176 -320 54 -111
139 -302 139 -313 0 -5 13 -37 29 -71 25 -52 90 -220 108 -278 6 -19 -21 -26
-31 -9 -3 5 -32 21 -63 37 -41 19 -98 67 -193 158 -193 187 -236 234 -266 294
-18 35 -32 51 -41 48 -10 -4 -12 3 -8 32 4 25 -2 58 -19 102 -103 280 -145
430 -120 430 5 0 19 -37 31 -82 44 -172 153 -468 192 -527 42 -60 380 -401
398 -401 6 0 21 -15 33 -32 26 -39 24 -30 -28 122 -42 121 -192 456 -269 600
-43 82 -94 170 -199 347 -103 175 -173 296 -177 307 -3 8 -9 7 -20 -2 -13 -11
-15 -10 -10 7 3 12 10 18 16 14 7 -4 8 0 4 11 -34 88 -11 82 31 -8z"/>
<path d="M3542 3131 c-15 -9 0 -143 23 -197 24 -58 112 -209 133 -227 15 -14
26 -16 58 -8 21 5 32 9 23 10 -25 1 -33 31 -9 31 39 0 52 81 29 178 -12 50
-38 90 -40 62 -2 -27 3 -55 12 -65 19 -24 22 -94 5 -120 -23 -35 -40 -31 -79
18 -43 54 -71 121 -92 222 -9 44 -17 80 -18 80 -1 0 -9 6 -17 12 -9 7 -21 8
-28 4z"/>
<path d="M6550 2968 c-17 -19 -20 -35 -20 -111 0 -74 -3 -93 -20 -114 -11 -14
-20 -31 -20 -37 0 -10 101 -78 108 -72 8 9 -13 35 -33 40 -17 4 -22 11 -18 25
3 11 12 22 21 26 9 3 13 3 10 -1 -4 -4 -2 -16 4 -28 12 -20 12 -20 18 9 3 17
2 63 -3 104 -6 49 -5 89 2 118 17 65 -7 85 -49 41z"/>
<path d="M3966 2849 c-4 -23 -4 -67 -2 -98 3 -31 8 -92 11 -136 7 -98 19 -143
56 -218 23 -45 77 -125 104 -155 2 -2 3 14 3 35 0 27 -10 55 -39 99 -59 91
-82 190 -84 355 -1 75 -5 141 -9 148 -15 24 -34 10 -40 -30z"/>
<path d="M6088 2747 c-20 -9 -40 -37 -73 -102 -47 -94 -53 -115 -32 -115 33 0
207 135 225 174 14 31 -6 51 -43 44 -13 -3 -22 -1 -19 3 7 13 -26 10 -58 -4z"/>
<path d="M4365 2603 c4 -82 8 -177 10 -213 3 -65 51 -413 60 -439 3 -8 8 -40
11 -70 8 -74 22 -131 34 -131 17 0 11 147 -15 360 -13 113 -27 266 -30 340
-11 261 -14 280 -42 291 -13 5 -27 9 -30 9 -3 0 -3 -66 2 -147z"/>
<path d="M6808 2677 c-37 -19 -94 -56 -126 -81 -53 -42 -72 -50 -193 -80 -75
-18 -162 -37 -195 -41 -70 -8 -89 -17 -81 -38 9 -24 128 -27 202 -6 33 10 89
25 125 34 81 21 182 74 235 123 22 20 55 49 74 63 20 16 32 33 30 44 -4 15
-12 13 -71 -18z"/>
<path d="M4851 2384 c-34 -28 -39 -58 -20 -113 7 -20 16 -30 25 -27 8 3 11 0
8 -8 -9 -25 35 -50 97 -54 54 -4 62 -2 84 22 33 35 40 69 24 109 -17 44 -38
67 -76 83 -52 22 -107 18 -142 -12z"/>
<path d="M3283 2224 c-60 -12 -80 -21 -117 -55 -25 -23 -48 -50 -51 -60 -17
-51 124 -191 252 -251 48 -23 99 -43 113 -44 14 -2 34 -5 45 -7 11 -3 27 2 37
10 23 21 185 29 275 14 107 -19 249 -92 354 -184 43 -39 114 -135 105 -144 -4
-4 -89 14 -190 40 -139 35 -209 59 -287 97 -57 27 -105 46 -107 41 -2 -6 -21
-4 -45 5 l-42 14 45 -40 c25 -22 49 -40 53 -40 5 0 22 -9 38 -21 38 -27 242
-95 342 -114 44 -8 111 -15 151 -15 44 0 79 -5 91 -13 12 -9 35 -12 57 -9 l38
4 -24 19 c-14 11 -63 66 -109 122 -47 57 -100 114 -118 128 -58 43 -190 111
-205 105 -9 -3 -12 -1 -9 4 3 6 1 10 -5 10 -6 0 -30 9 -52 20 -23 11 -57 20
-75 20 -18 0 -33 5 -33 11 0 12 -145 5 -246 -12 -54 -9 -67 -8 -133 15 -122
43 -203 100 -241 170 l-25 46 25 23 c60 57 229 74 370 37 70 -18 330 -136 330
-150 0 -10 94 -30 102 -22 11 11 -100 89 -182 128 -107 51 -106 51 -210 84
-100 32 -124 36 -100 19 12 -9 11 -9 -5 -3 -38 14 -140 13 -212 -2z"/>
<path d="M950 2040 c-212 -25 -299 -93 -420 -328 -23 -45 -61 -104 -84 -130
-60 -67 -79 -98 -109 -173 -98 -248 -66 -438 85 -513 96 -48 160 -29 295 87
47 39 96 80 109 91 24 17 23 16 -5 -26 -16 -24 -39 -69 -50 -99 -17 -45 -41
-74 -138 -169 -65 -63 -138 -143 -163 -177 -25 -34 -72 -97 -105 -141 -33 -44
-93 -143 -134 -219 -75 -138 -125 -221 -145 -236 -6 -5 14 -5 44 -1 30 3 56 7
56 8 1 0 14 26 29 56 15 30 69 118 120 195 105 159 181 238 314 323 126 80
206 135 209 144 7 15 22 8 22 -10 0 -10 9 -42 19 -72 11 -30 22 -86 26 -125 9
-96 49 -245 85 -315 41 -81 128 -173 185 -194 76 -30 87 -16 25 30 -115 85
-183 227 -229 474 -17 91 -34 176 -37 189 -7 23 -6 23 47 16 80 -11 127 -31
194 -82 80 -61 227 -232 293 -340 51 -84 53 -91 50 -148 -3 -71 -44 -144 -81
-146 -18 -1 -19 -2 -4 -6 20 -5 110 38 145 70 32 30 31 108 -4 173 -67 126
-125 212 -193 285 -40 44 -71 82 -68 86 15 14 320 -167 357 -212 8 -9 41 -38
75 -63 l60 -47 140 -1 c214 0 353 11 376 32 19 17 26 68 10 78 -5 3 -30 59
-57 123 -70 172 -143 271 -235 319 -70 36 -477 164 -556 175 -142 20 -105 35
132 55 146 11 336 73 545 177 57 28 130 98 130 124 0 11 -23 46 -50 78 -28 31
-60 76 -71 99 -23 49 -38 59 -184 119 -137 55 -190 67 -252 56 -91 -17 -236
-72 -327 -123 -118 -67 -312 -207 -401 -289 -38 -36 -72 -61 -74 -55 -1 5 13
35 32 66 19 31 67 122 107 202 40 80 99 185 132 234 69 102 80 144 49 193 -25
40 -64 60 -149 79 -73 15 -76 15 -172 4z m226 -88 c69 -35 68 -44 -20 -172
-29 -41 -116 -205 -195 -363 -115 -232 -151 -296 -183 -325 -22 -20 -46 -37
-53 -38 -8 -1 -40 -23 -72 -49 -98 -81 -152 -93 -216 -50 -20 14 -47 45 -59
68 -20 36 -23 56 -22 147 1 87 5 118 27 179 36 99 67 151 116 191 30 24 54 58
86 128 92 191 183 287 290 301 22 4 90 6 150 5 92 0 117 -4 151 -22z m797
-347 c111 -54 123 -64 188 -138 l70 -81 -38 -38 c-25 -26 -82 -61 -170 -103
-135 -65 -218 -88 -413 -116 -105 -14 -197 -33 -230 -47 -14 -6 -83 -23 -155
-38 -142 -29 -286 -89 -349 -145 -21 -18 -37 -26 -41 -19 -9 15 65 178 119
258 53 80 188 213 279 274 34 23 78 54 97 69 47 37 239 131 320 157 142 45
171 43 323 -33z m-494 -641 c40 -8 99 -24 130 -35 31 -11 123 -43 204 -70 149
-50 231 -86 276 -121 32 -24 88 -111 112 -171 10 -26 30 -70 44 -97 48 -95 38
-101 -150 -105 -66 -1 -143 -6 -171 -10 -64 -9 -82 0 -194 95 -50 41 -129 95
-190 127 -58 31 -140 75 -182 99 -83 47 -181 83 -298 110 -41 9 -90 24 -109
34 -32 16 -36 16 -63 1 -21 -12 -27 -21 -23 -37 4 -18 -5 -26 -63 -54 -76 -37
-205 -110 -212 -120 -3 -4 -15 -13 -28 -19 -23 -12 -23 -12 -11 11 17 32 123
136 189 185 56 42 105 60 116 42 4 -6 13 -4 24 6 10 9 24 15 32 14 26 -3 35 1
46 25 15 35 121 82 212 95 147 22 176 21 309 -5z"/>
<path d="M1113 883 c-58 -6 -54 -23 5 -24 99 -2 145 -10 217 -39 94 -38 274
-127 300 -149 11 -10 72 -51 135 -91 63 -41 118 -78 121 -82 5 -8 39 -1 39 9
0 8 -43 41 -110 84 -36 23 -76 50 -90 59 -14 9 -50 31 -80 48 -30 17 -91 51
-134 76 -132 75 -293 119 -403 109z"/>
<path d="M4790 1970 c-118 -27 -120 -190 -3 -242 78 -34 162 -7 199 64 19 36
8 87 -26 131 -30 38 -111 60 -170 47z"/>
<path d="M2519 1726 c-34 -17 -35 -36 -4 -36 59 0 203 -187 270 -350 l39 -95
1 -370 c1 -365 1 -371 28 -485 30 -126 79 -281 110 -347 l19 -43 79 0 79 0
-55 58 c-66 69 -76 103 -20 66 13 -9 30 -12 36 -8 7 4 9 3 6 -3 -4 -6 15 -30
41 -54 l47 -44 82 0 c44 0 79 -4 76 -9 -3 -4 7 0 22 10 25 16 26 19 9 25 -11
4 -15 8 -9 8 5 1 -24 34 -65 74 -153 148 -303 312 -347 378 -25 38 -49 66 -54
63 -5 -3 -6 2 -3 10 3 9 -8 40 -25 70 -25 45 -28 55 -15 60 22 8 26 7 19 -4
-3 -6 3 -23 14 -39 12 -16 21 -32 21 -35 0 -21 142 -193 273 -331 84 -88 166
-174 183 -192 17 -18 46 -36 64 -40 19 -3 49 -17 68 -30 38 -25 72 -30 72 -10
0 7 3 8 8 2 4 -6 30 -11 57 -12 28 -1 59 -3 70 -5 16 -2 20 2 18 24 -2 36
-104 259 -115 252 -4 -3 -5 2 -2 10 7 18 -29 69 -41 58 -4 -4 -5 2 -1 13 3 11
2 25 -2 30 -10 14 -32 17 -32 5 0 -5 -6 -10 -12 -10 -8 1 -4 8 8 18 20 17 22
48 2 36 -7 -4 -8 -2 -4 4 6 10 -120 230 -154 269 -5 7 -10 16 -10 21 0 5 -13
27 -28 48 -15 21 -47 71 -70 111 -32 55 -46 71 -60 67 -14 -5 -14 -4 -3 4 12
9 9 18 -20 54 -19 24 -68 89 -108 146 -43 61 -77 100 -83 96 -7 -4 -8 -2 -4 4
4 7 2 12 -4 12 -6 0 -8 5 -5 10 3 6 -4 10 -17 10 -17 0 -19 3 -9 9 10 6 -5 29
-60 91 -41 46 -87 99 -104 119 -16 20 -38 45 -47 55 -23 25 -23 40 0 31 9 -4
22 -8 29 -8 7 0 12 -3 11 -6 -2 -22 13 -39 105 -123 56 -52 103 -97 104 -102
1 -4 5 -11 9 -14 4 -4 4 -2 0 5 -9 17 14 28 25 12 5 -8 7 -18 6 -23 -2 -5 7
-21 19 -35 13 -14 35 -39 49 -56 15 -16 24 -25 20 -18 -8 17 17 53 37 53 10 0
18 -5 18 -11 0 -5 -5 -7 -10 -4 -9 6 -40 -17 -40 -29 0 -3 17 -13 38 -22 20
-9 32 -18 25 -21 -7 -2 -22 1 -34 7 -16 9 -24 9 -33 0 -8 -8 -7 -10 4 -6 10 4
19 -3 27 -19 8 -19 8 -23 0 -18 -7 4 -6 -1 2 -10 7 -9 17 -14 22 -11 5 3 6 -3
2 -12 -4 -12 -3 -15 5 -10 8 5 12 0 12 -12 0 -22 33 -56 44 -45 4 4 4 0 1 -9
-8 -21 30 -43 69 -39 17 2 26 -1 22 -7 -3 -6 -15 -8 -26 -5 -15 4 -20 0 -20
-15 0 -12 8 -26 18 -31 9 -6 13 -11 9 -11 -4 0 -3 -9 3 -20 7 -12 16 -18 23
-13 15 9 49 9 65 -1 6 -4 17 -4 22 -1 6 3 10 1 10 -6 0 -7 -10 -9 -25 -7 -17
4 -25 1 -25 -8 0 -8 -7 -14 -15 -14 -8 0 -14 3 -14 8 4 23 -2 35 -11 26 -14
-14 37 -107 52 -98 7 5 8 2 4 -5 -11 -17 22 -51 42 -45 15 5 15 4 0 -9 -15
-12 -16 -16 -3 -33 8 -10 15 -14 15 -8 0 7 8 15 17 18 16 6 16 5 0 -12 -17
-19 -16 -23 39 -116 31 -53 60 -94 65 -90 5 3 6 -1 3 -9 -4 -12 18 -63 63
-142 42 -74 135 -274 144 -310 11 -42 12 -43 40 -33 16 5 29 14 29 19 0 5 9
18 19 28 31 31 41 85 48 250 5 131 4 153 -8 146 -12 -8 -12 -6 0 8 12 15 11
21 -9 42 -13 13 -27 22 -33 18 -6 -3 -7 -1 -3 5 4 7 4 12 1 12 -3 0 -11 -14
-17 -30 -8 -25 -13 -28 -24 -19 -15 12 -9 33 7 24 5 -4 9 -1 9 4 0 6 -4 11
-10 11 -5 0 -13 18 -16 41 -4 22 -12 46 -18 52 -6 7 -12 25 -13 41 -1 16 -8
34 -14 40 -9 8 -10 7 -4 -3 5 -9 3 -12 -4 -10 -7 3 -12 9 -12 14 0 6 -8 18
-17 28 -15 17 -15 17 1 11 9 -3 17 -10 17 -15 0 -5 4 -9 9 -9 14 0 7 60 -8 70
-8 4 -9 9 -3 11 6 3 3 24 -9 55 -24 63 -112 210 -125 207 -14 -2 -10 70 4 75
7 2 12 0 12 -5 0 -6 26 -50 59 -99 55 -84 111 -205 111 -240 0 -8 4 -13 9 -10
5 4 7 -3 4 -14 -3 -11 0 -26 6 -34 7 -8 10 -31 7 -54 -2 -22 1 -61 8 -88 12
-47 13 -49 45 -46 30 3 32 2 26 -20 -4 -12 -4 -20 0 -16 5 4 13 4 19 -1 36
-27 41 -20 44 62 1 45 -2 95 -7 111 -6 17 -12 49 -14 71 -3 22 -16 83 -31 135
-36 133 -5 147 38 17 37 -109 57 -349 32 -374 -3 -3 -1 -12 5 -20 9 -9 8 -13
0 -13 -6 0 -11 -7 -11 -16 0 -9 -6 -14 -13 -11 -10 4 -13 -5 -11 -31 2 -37 4
-294 2 -322 0 -8 2 -22 4 -30 3 -8 3 -12 1 -7 -3 4 -12 7 -21 7 -14 0 -14 -2
-3 -9 8 -6 10 -14 5 -22 -14 -22 -13 -39 1 -39 8 0 16 8 19 17 3 10 4 6 2 -10
-2 -15 1 -27 5 -27 5 0 9 21 10 48 0 45 15 141 18 114 0 -7 6 -10 11 -7 6 3
13 -1 16 -9 10 -27 21 -18 33 29 6 25 14 45 17 45 3 0 3 -8 -1 -17 -4 -11 -3
-14 3 -8 5 6 14 39 20 75 12 70 35 310 31 326 -2 8 4 28 25 74 11 26 -4 -229
-23 -395 -10 -87 -17 -166 -14 -175 3 -10 1 -9 -7 3 -9 15 -15 16 -26 6 -12
-10 -13 -8 -6 12 10 26 5 52 -8 44 -10 -6 -36 -143 -28 -150 9 -9 185 -18 213
-11 17 4 25 12 22 20 -3 8 -2 17 3 22 20 21 52 241 51 355 0 199 -32 291 -162
474 -117 163 -275 289 -461 365 -51 21 -139 58 -195 83 -77 34 -104 42 -113
33 -8 -7 -11 -7 -7 0 8 14 -46 44 -163 89 -93 36 -124 51 -268 134 -142 82
-405 161 -453 137z m821 -504 c112 -114 158 -181 256 -372 86 -168 180 -381
196 -445 23 -88 32 -241 15 -252 -6 -4 -8 0 -4 10 3 9 1 18 -6 20 -9 4 -9 7 0
17 9 10 8 16 -7 29 -20 17 -29 68 -16 89 15 25 -98 300 -145 351 -10 10 -16
21 -13 24 9 8 -29 76 -39 70 -6 -3 -7 -1 -3 5 14 22 -116 247 -227 394 -81
106 -104 131 -112 118 -3 -6 -11 -7 -17 -4 -7 4 -4 10 7 17 14 7 15 11 4 18
-7 4 -19 3 -26 -2 -9 -8 -11 -5 -10 10 1 12 8 21 17 21 8 0 67 -53 130 -118z
m-400 -196 c22 -56 145 -251 193 -306 12 -14 49 -59 82 -100 78 -97 200 -244
246 -295 53 -58 83 -95 113 -140 15 -22 43 -57 62 -77 19 -21 29 -38 23 -38
-6 0 -17 7 -24 17 -7 9 -23 17 -36 19 -13 1 -26 3 -29 3 -3 1 2 6 10 11 12 8
9 10 -11 10 -15 0 -32 6 -38 14 -7 8 -26 18 -43 21 -22 5 -27 10 -19 18 9 9
14 8 20 -2 11 -17 41 -7 41 13 0 10 -6 13 -15 10 -8 -4 -15 -1 -15 6 0 12
-155 196 -170 202 -12 5 -260 325 -311 403 -58 88 -103 177 -119 235 -7 25
-17 48 -22 51 -6 4 -7 12 -3 18 10 17 37 -22 65 -93z"/>
<path d="M10174 1514 c-107 -64 -169 -135 -235 -269 -74 -151 -90 -211 -96
-358 l-6 -119 33 17 c41 21 71 53 123 130 22 33 43 62 47 65 16 13 105 138
150 211 l50 81 -1 139 c0 76 -2 139 -3 139 -1 0 -29 -16 -62 -36z"/>
<path d="M5109 1457 c-44 -29 -69 -80 -69 -138 0 -124 139 -182 226 -95 65 65
69 163 9 223 -28 28 -40 33 -83 33 -34 0 -59 -7 -83 -23z"/>
<path d="M7583 1254 c-21 -33 -42 -163 -36 -229 10 -120 42 -202 120 -315 38
-54 47 -75 54 -135 13 -97 38 -336 44 -420 11 -135 15 -146 57 -130 16 6 14
30 -24 398 -19 184 -20 223 -9 253 31 85 31 283 0 374 -26 76 -144 230 -176
230 -7 0 -20 -12 -30 -26z m131 -286 c16 -15 20 -36 24 -128 4 -98 3 -110 -11
-104 -14 5 -37 54 -37 77 0 4 -11 29 -25 57 -28 56 -31 72 -12 64 8 -3 20 2
27 11 19 22 -4 38 -45 30 -33 -6 -23 10 10 17 25 5 45 -1 69 -24z"/>
<path d="M5730 986 c-50 -14 -241 -117 -307 -166 -24 -17 -43 -38 -43 -46 0
-8 -4 -13 -9 -9 -5 3 -15 0 -23 -7 -79 -75 -180 -153 -315 -242 -210 -140
-360 -261 -427 -345 -50 -62 -102 -149 -94 -156 2 -2 53 -5 113 -6 l109 -2 45
94 c53 108 69 133 93 142 10 3 30 24 45 46 16 22 31 40 35 41 9 0 -8 -27 -68
-115 -33 -48 -118 -209 -111 -210 1 0 67 2 147 5 l145 5 18 30 c10 17 48 82
84 145 37 63 87 151 112 195 35 60 77 112 176 210 71 72 147 155 167 185 21
30 38 51 38 46 0 -4 17 8 37 28 81 78 59 26 -47 -115 -39 -51 -90 -109 -113
-128 -104 -87 -163 -161 -269 -338 -109 -182 -145 -250 -137 -257 2 -2 34 -6
71 -7 l67 -4 32 50 c31 49 64 120 136 295 19 46 41 93 49 104 8 11 14 28 14
37 0 9 9 27 20 40 l20 24 -7 -35 c-8 -47 -71 -207 -145 -370 -26 -58 -49 -122
-45 -126 2 -2 52 -7 110 -12 l107 -8 10 36 c5 19 28 112 51 205 39 161 86 333
144 525 33 110 46 190 34 213 -11 20 -10 20 -69 3z m-566 -518 c-3 -12 -13
-28 -21 -36 -45 -45 -139 -221 -179 -332 -13 -35 -27 -66 -31 -67 -9 -3 -11
59 -2 67 3 3 18 41 33 85 57 163 143 292 204 304 2 1 0 -9 -4 -21z"/>
<path d="M3 895 c2 -61 8 -90 18 -97 11 -8 10 -9 -4 -4 -15 5 -17 0 -14 -27 2
-17 9 -43 16 -56 8 -14 9 -21 2 -17 -7 4 -11 -1 -11 -13 0 -11 5 -23 12 -27 7
-5 8 -3 3 6 -5 9 -4 11 3 6 7 -4 12 -16 12 -27 0 -12 5 -19 12 -16 8 2 12 20
11 46 -1 24 3 41 9 41 7 0 9 30 6 93 -5 98 -23 148 -58 167 -20 10 -20 8 -17
-75z"/>
<path d="M8164 741 c-108 -66 -97 -195 17 -208 48 -5 76 6 127 51 23 20 31 10
10 -13 -11 -11 -10 -13 2 -9 24 7 26 124 3 150 -44 49 -107 61 -159 29z"/>
<path d="M7165 461 c-48 -10 -102 -67 -140 -147 -28 -60 -33 -155 -10 -209 21
-47 84 -110 98 -96 6 6 21 11 34 11 13 0 23 4 23 9 0 5 -25 39 -55 76 -30 36
-55 70 -56 73 -6 58 -2 93 10 97 8 3 11 8 8 12 -10 9 53 84 80 94 13 5 59 10
102 11 67 1 84 -3 121 -25 110 -66 232 -223 255 -330 5 -24 9 -26 33 -21 15 4
29 9 31 11 3 2 -17 50 -45 106 -41 86 -62 115 -134 188 -56 56 -104 95 -140
112 -61 30 -150 41 -215 28z"/>
<path d="M10181 403 c-71 -25 -179 -140 -229 -244 -23 -46 -44 -100 -47 -119
l-6 -35 98 1 c114 1 100 -12 189 170 49 101 54 118 54 178 0 36 -3 66 -7 65
-5 0 -28 -8 -52 -16z"/>
<path d="M0 203 l0 -208 25 36 c13 20 29 57 36 83 13 51 7 172 -10 204 -6 12
-11 25 -10 29 4 23 -3 39 -21 51 -20 12 -20 10 -20 -195z"/>
<path d="M6710 325 c-11 -13 -8 -22 22 -53 46 -48 75 -98 109 -186 23 -59 31
-71 51 -72 13 -1 33 -4 45 -8 21 -7 20 -1 -22 90 -54 115 -78 156 -123 207
-37 40 -62 46 -82 22z"/>
<path d="M6595 271 c-63 -22 -96 -67 -130 -173 -31 -97 -31 -98 -1 -98 19 0
27 9 40 47 34 94 39 104 67 143 16 22 33 40 39 40 5 0 20 -11 33 -24 20 -20
27 -42 36 -107 6 -45 11 -86 11 -91 0 -4 11 -8 25 -8 24 0 25 3 25 58 0 32 -7
81 -15 109 -15 51 -52 115 -70 119 -5 1 -32 -6 -60 -15z"/>
<path d="M8125 273 c-40 -21 -113 -91 -132 -127 -8 -16 -23 -53 -33 -83 l-17
-53 35 3 c31 3 37 9 48 40 7 19 20 47 29 61 18 27 143 111 152 102 3 -3 -2 -8
-11 -12 -9 -3 -16 -17 -16 -29 0 -13 -4 -26 -9 -29 -5 -3 -7 -15 -4 -26 3 -12
-2 -29 -12 -40 -16 -18 -16 -18 4 -13 12 3 26 14 32 25 7 13 14 17 20 11 13
-13 0 -45 -14 -36 -6 4 -8 0 -4 -10 3 -10 2 -17 -3 -17 -6 0 -10 -4 -10 -9 0
-14 39 -25 90 -24 l45 0 -2 85 c-2 104 -17 162 -46 183 -28 19 -103 19 -142
-2z"/>
<path d="M8620 164 c0 -4 19 -30 43 -58 23 -28 50 -63 59 -77 l16 -26 274 1
c176 1 272 5 271 11 -2 13 -173 58 -322 86 -63 11 -152 31 -198 45 -80 23
-143 31 -143 18z"/>
</g>
</svg>
